<svg xmlns="http://www.w3.org/2000/svg" width="1200" height="780" viewBox="0 0 1200 780" font-family="'Helvetica Neue', Helvetica, Arial, 'Hiragino Sans', 'Noto Sans JP', sans-serif">
<defs><filter id="sh" x="-10%" y="-10%" width="120%" height="130%"><feDropShadow dx="0" dy="6" stdDeviation="8" flood-color="#000" flood-opacity="0.18"/></filter></defs>
<rect width="1200" height="780" fill="#e9e5dc"/>
<text x="600" y="62" font-size="40" font-weight="800" fill="#2b2a28" text-anchor="middle" letter-spacing="0.5">Human MAPF Contest 001 結果発表</text>
<text x="600" y="94" font-size="17" fill="#5b5852" text-anchor="middle">総合部門 (makespan × total distance) 上位 5 名 · 9/11 12:00 〜 9/13 12:00</text><g filter="url(#sh)"><rect x="40" y="122" width="544" height="430" rx="14" fill="#f4f1ea"/></g><text x="66" y="170" font-size="32" font-weight="800" fill="#2b2a28">Div.1</text><text x="558" y="168" font-size="15" fill="#6b6862" text-anchor="end">HMC001 · 75 agents · diff 2400</text><line x1="62" y1="184" x2="562" y2="184" stroke="#d8d2c4" stroke-width="1.5"/><rect x="56" y="188" width="512" height="56" rx="8" fill="#f5ead2"/><text x="84" y="222" font-size="30" text-anchor="middle">🥇</text><text x="116" y="220" font-size="27" font-weight="800" fill="#e00000">sigtuna</text><text x="558" y="214" font-size="24" font-weight="800" fill="#2b2a28" text-anchor="end">157,190</text><text x="558" y="236" font-size="14" fill="#6b6862" text-anchor="end">55 × 2858</text><text x="84" y="288" font-size="30" text-anchor="middle">🥈</text><text x="116" y="286" font-size="24" font-weight="800" fill="#e00000">sig_255</text><text x="558" y="280" font-size="21" font-weight="800" fill="#2b2a28" text-anchor="end">157,190</text><text x="558" y="302" font-size="14" fill="#6b6862" text-anchor="end">55 × 2858</text><text x="84" y="354" font-size="30" text-anchor="middle">🥉</text><text x="116" y="352" font-size="24" font-weight="800" fill="#e00000">occhan</text><text x="558" y="346" font-size="21" font-weight="800" fill="#2b2a28" text-anchor="end">157,850</text><text x="558" y="368" font-size="14" fill="#6b6862" text-anchor="end">55 × 2870</text><text x="84" y="417" font-size="22" font-weight="800" fill="#9a968e" text-anchor="middle">4</text><text x="116" y="418" font-size="24" font-weight="800" fill="#c9a300">鳳。</text><text x="558" y="412" font-size="21" font-weight="800" fill="#2b2a28" text-anchor="end">167,010</text><text x="558" y="434" font-size="14" fill="#6b6862" text-anchor="end">57 × 2930</text><text x="84" y="483" font-size="22" font-weight="800" fill="#9a968e" text-anchor="middle">5</text><text x="116" y="484" font-size="24" font-weight="800" fill="#0000ff">primesosu</text><text x="558" y="478" font-size="21" font-weight="800" fill="#2b2a28" text-anchor="end">250,194</text><text x="558" y="500" font-size="14" fill="#6b6862" text-anchor="end">69 × 3626</text><g filter="url(#sh)"><rect x="616" y="122" width="544" height="430" rx="14" fill="#f4f1ea"/></g><text x="642" y="170" font-size="32" font-weight="800" fill="#2b2a28">Div.2</text><text x="1134" y="168" font-size="15" fill="#6b6862" text-anchor="end">HMC001 · 30 agents · diff 1600</text><line x1="638" y1="184" x2="1138" y2="184" stroke="#d8d2c4" stroke-width="1.5"/><rect x="632" y="188" width="512" height="56" rx="8" fill="#f5ead2"/><text x="660" y="222" font-size="30" text-anchor="middle">🥇</text><text x="692" y="220" font-size="27" font-weight="800" fill="#c9a300">kukone</text><text x="1134" y="214" font-size="24" font-weight="800" fill="#2b2a28" text-anchor="end">48,400</text><text x="1134" y="236" font-size="14" fill="#6b6862" text-anchor="end">44 × 1100</text><text x="660" y="288" font-size="30" text-anchor="middle">🥈</text><text x="692" y="286" font-size="24" font-weight="800" fill="#c9a300">komorineko</text><text x="1134" y="280" font-size="21" font-weight="800" fill="#2b2a28" text-anchor="end">48,576</text><text x="1134" y="302" font-size="14" fill="#6b6862" text-anchor="end">44 × 1104</text><text x="660" y="354" font-size="30" text-anchor="middle">🥉</text><text x="692" y="352" font-size="24" font-weight="800" fill="#ff8000">nit</text><text x="1134" y="346" font-size="21" font-weight="800" fill="#2b2a28" text-anchor="end">49,590</text><text x="1134" y="368" font-size="14" fill="#6b6862" text-anchor="end">45 × 1102</text><text x="660" y="417" font-size="22" font-weight="800" fill="#9a968e" text-anchor="middle">4</text><text x="692" y="418" font-size="24" font-weight="800" fill="#c9a300">shim0</text><text x="1134" y="412" font-size="21" font-weight="800" fill="#2b2a28" text-anchor="end">53,184</text><text x="1134" y="434" font-size="14" fill="#6b6862" text-anchor="end">48 × 1108</text><text x="660" y="483" font-size="22" font-weight="800" fill="#9a968e" text-anchor="middle">5</text><text x="692" y="484" font-size="24" font-weight="800" fill="#0000ff">PLM</text><text x="1134" y="478" font-size="21" font-weight="800" fill="#2b2a28" text-anchor="end">57,900</text><text x="1134" y="500" font-size="14" fill="#6b6862" text-anchor="end">50 × 1158</text><text x="66" y="534" font-size="14" fill="#6b6862">※ 1・2 位は同点 (55 × 2858)．規定により提出時刻の早い sigtuna が 1 位</text><g filter="url(#sh)"><rect x="40" y="578" width="172.8" height="172.8" rx="6" fill="#f4f1ea"/></g><rect x="40" y="578" width="5.4" height="5.4" fill="#3b3a37"/><rect x="45.4" y="578" width="5.4" height="5.4" fill="#3b3a37"/><rect x="50.8" y="578" width="5.4" height="5.4" fill="#3b3a37"/><rect x="56.2" y="578" width="5.4" height="5.4" fill="#3b3a37"/><rect x="61.6" y="578" width="5.4" height="5.4" fill="#3b3a37"/><rect x="67" y="578" width="5.4" height="5.4" fill="#3b3a37"/><rect x="72.4" y="578" width="5.4" height="5.4" fill="#3b3a37"/><rect x="77.80000000000001" y="578" width="5.4" height="5.4" fill="#3b3a37"/><rect x="83.2" y="578" width="5.4" height="5.4" fill="#3b3a37"/><rect x="88.6" y="578" width="5.4" height="5.4" fill="#3b3a37"/><rect x="94" y="578" width="5.4" height="5.4" fill="#3b3a37"/><rect x="99.4" y="578" width="5.4" height="5.4" fill="#3b3a37"/><rect x="104.80000000000001" y="578" width="5.4" height="5.4" fill="#3b3a37"/><rect x="110.2" y="578" width="5.4" height="5.4" fill="#3b3a37"/><rect x="115.60000000000001" y="578" width="5.4" height="5.4" fill="#3b3a37"/><rect x="121" y="578" width="5.4" height="5.4" fill="#3b3a37"/><rect x="126.4" y="578" width="5.4" height="5.4" fill="#3b3a37"/><rect x="131.8" y="578" width="5.4" height="5.4" fill="#3b3a37"/><rect x="137.2" y="578" width="5.4" height="5.4" fill="#3b3a37"/><rect x="142.60000000000002" y="578" width="5.4" height="5.4" fill="#3b3a37"/><rect x="148" y="578" width="5.4" height="5.4" fill="#3b3a37"/><rect x="153.4" y="578" width="5.4" height="5.4" fill="#3b3a37"/><rect x="158.8" y="578" width="5.4" height="5.4" fill="#3b3a37"/><rect x="164.2" y="578" width="5.4" height="5.4" fill="#3b3a37"/><rect x="169.60000000000002" y="578" width="5.4" height="5.4" fill="#3b3a37"/><rect x="175" y="578" width="5.4" height="5.4" fill="#3b3a37"/><rect x="180.4" y="578" width="5.4" height="5.4" fill="#3b3a37"/><rect x="185.8" y="578" width="5.4" height="5.4" fill="#3b3a37"/><rect x="191.20000000000002" y="578" width="5.4" height="5.4" fill="#3b3a37"/><rect x="196.60000000000002" y="578" width="5.4" height="5.4" fill="#3b3a37"/><rect x="202" y="578" width="5.4" height="5.4" fill="#3b3a37"/><rect x="207.4" y="578" width="5.4" height="5.4" fill="#3b3a37"/><rect x="40" y="583.4" width="5.4" height="5.4" fill="#3b3a37"/><rect x="77.80000000000001" y="583.4" width="5.4" height="5.4" fill="#3b3a37"/><rect x="83.2" y="583.4" width="5.4" height="5.4" fill="#3b3a37"/><rect x="88.6" y="583.4" width="5.4" height="5.4" fill="#3b3a37"/><rect x="94" y="583.4" width="5.4" height="5.4" fill="#3b3a37"/><rect x="99.4" y="583.4" width="5.4" height="5.4" fill="#3b3a37"/><rect x="104.80000000000001" y="583.4" width="5.4" height="5.4" fill="#3b3a37"/><rect x="142.60000000000002" y="583.4" width="5.4" height="5.4" fill="#3b3a37"/><rect x="148" y="583.4" width="5.4" height="5.4" fill="#3b3a37"/><rect x="153.4" y="583.4" width="5.4" height="5.4" fill="#3b3a37"/><rect x="158.8" y="583.4" width="5.4" height="5.4" fill="#3b3a37"/><rect x="164.2" y="583.4" width="5.4" height="5.4" fill="#3b3a37"/><rect x="169.60000000000002" y="583.4" width="5.4" height="5.4" fill="#3b3a37"/><rect x="207.4" y="583.4" width="5.4" height="5.4" fill="#3b3a37"/><rect x="40" y="588.8" width="5.4" height="5.4" fill="#3b3a37"/><rect x="142.60000000000002" y="588.8" width="5.4" height="5.4" fill="#3b3a37"/><rect x="148" y="588.8" width="5.4" height="5.4" fill="#3b3a37"/><rect x="153.4" y="588.8" width="5.4" height="5.4" fill="#3b3a37"/><rect x="158.8" y="588.8" width="5.4" height="5.4" fill="#3b3a37"/><rect x="164.2" y="588.8" width="5.4" height="5.4" fill="#3b3a37"/><rect x="169.60000000000002" y="588.8" width="5.4" height="5.4" fill="#3b3a37"/><rect x="207.4" y="588.8" width="5.4" height="5.4" fill="#3b3a37"/><rect x="40" y="594.2" width="5.4" height="5.4" fill="#3b3a37"/><rect x="56.2" y="594.2" width="5.4" height="5.4" fill="#3b3a37"/><rect x="77.80000000000001" y="594.2" width="5.4" height="5.4" fill="#3b3a37"/><rect x="83.2" y="594.2" width="5.4" height="5.4" fill="#3b3a37"/><rect x="88.6" y="594.2" width="5.4" height="5.4" fill="#3b3a37"/><rect x="94" y="594.2" width="5.4" height="5.4" fill="#3b3a37"/><rect x="99.4" y="594.2" width="5.4" height="5.4" fill="#3b3a37"/><rect x="104.80000000000001" y="594.2" width="5.4" height="5.4" fill="#3b3a37"/><rect x="126.4" y="594.2" width="5.4" height="5.4" fill="#3b3a37"/><rect x="131.8" y="594.2" width="5.4" height="5.4" fill="#3b3a37"/><rect x="142.60000000000002" y="594.2" width="5.4" height="5.4" fill="#3b3a37"/><rect x="148" y="594.2" width="5.4" height="5.4" fill="#3b3a37"/><rect x="153.4" y="594.2" width="5.4" height="5.4" fill="#3b3a37"/><rect x="158.8" y="594.2" width="5.4" height="5.4" fill="#3b3a37"/><rect x="164.2" y="594.2" width="5.4" height="5.4" fill="#3b3a37"/><rect x="169.60000000000002" y="594.2" width="5.4" height="5.4" fill="#3b3a37"/><rect x="207.4" y="594.2" width="5.4" height="5.4" fill="#3b3a37"/><rect x="40" y="599.6" width="5.4" height="5.4" fill="#3b3a37"/><rect x="56.2" y="599.6" width="5.4" height="5.4" fill="#3b3a37"/><rect x="77.80000000000001" y="599.6" width="5.4" height="5.4" fill="#3b3a37"/><rect x="83.2" y="599.6" width="5.4" height="5.4" fill="#3b3a37"/><rect x="88.6" y="599.6" width="5.4" height="5.4" fill="#3b3a37"/><rect x="94" y="599.6" width="5.4" height="5.4" fill="#3b3a37"/><rect x="99.4" y="599.6" width="5.4" height="5.4" fill="#3b3a37"/><rect x="104.80000000000001" y="599.6" width="5.4" height="5.4" fill="#3b3a37"/><rect x="207.4" y="599.6" width="5.4" height="5.4" fill="#3b3a37"/><rect x="40" y="605" width="5.4" height="5.4" fill="#3b3a37"/><rect x="88.6" y="605" width="5.4" height="5.4" fill="#3b3a37"/><rect x="94" y="605" width="5.4" height="5.4" fill="#3b3a37"/><rect x="142.60000000000002" y="605" width="5.4" height="5.4" fill="#3b3a37"/><rect x="148" y="605" width="5.4" height="5.4" fill="#3b3a37"/><rect x="153.4" y="605" width="5.4" height="5.4" fill="#3b3a37"/><rect x="158.8" y="605" width="5.4" height="5.4" fill="#3b3a37"/><rect x="164.2" y="605" width="5.4" height="5.4" fill="#3b3a37"/><rect x="169.60000000000002" y="605" width="5.4" height="5.4" fill="#3b3a37"/><rect x="207.4" y="605" width="5.4" height="5.4" fill="#3b3a37"/><rect x="40" y="610.4" width="5.4" height="5.4" fill="#3b3a37"/><rect x="77.80000000000001" y="610.4" width="5.4" height="5.4" fill="#3b3a37"/><rect x="88.6" y="610.4" width="5.4" height="5.4" fill="#3b3a37"/><rect x="94" y="610.4" width="5.4" height="5.4" fill="#3b3a37"/><rect x="104.80000000000001" y="610.4" width="5.4" height="5.4" fill="#3b3a37"/><rect x="142.60000000000002" y="610.4" width="5.4" height="5.4" fill="#3b3a37"/><rect x="148" y="610.4" width="5.4" height="5.4" fill="#3b3a37"/><rect x="153.4" y="610.4" width="5.4" height="5.4" fill="#3b3a37"/><rect x="158.8" y="610.4" width="5.4" height="5.4" fill="#3b3a37"/><rect x="164.2" y="610.4" width="5.4" height="5.4" fill="#3b3a37"/><rect x="169.60000000000002" y="610.4" width="5.4" height="5.4" fill="#3b3a37"/><rect x="207.4" y="610.4" width="5.4" height="5.4" fill="#3b3a37"/><rect x="40" y="615.8" width="5.4" height="5.4" fill="#3b3a37"/><rect x="45.4" y="615.8" width="5.4" height="5.4" fill="#3b3a37"/><rect x="50.8" y="615.8" width="5.4" height="5.4" fill="#3b3a37"/><rect x="61.6" y="615.8" width="5.4" height="5.4" fill="#3b3a37"/><rect x="72.4" y="615.8" width="5.4" height="5.4" fill="#3b3a37"/><rect x="77.80000000000001" y="615.8" width="5.4" height="5.4" fill="#3b3a37"/><rect x="88.6" y="615.8" width="5.4" height="5.4" fill="#3b3a37"/><rect x="94" y="615.8" width="5.4" height="5.4" fill="#3b3a37"/><rect x="104.80000000000001" y="615.8" width="5.4" height="5.4" fill="#3b3a37"/><rect x="110.2" y="615.8" width="5.4" height="5.4" fill="#3b3a37"/><rect x="115.60000000000001" y="615.8" width="5.4" height="5.4" fill="#3b3a37"/><rect x="126.4" y="615.8" width="5.4" height="5.4" fill="#3b3a37"/><rect x="131.8" y="615.8" width="5.4" height="5.4" fill="#3b3a37"/><rect x="142.60000000000002" y="615.8" width="5.4" height="5.4" fill="#3b3a37"/><rect x="148" y="615.8" width="5.4" height="5.4" fill="#3b3a37"/><rect x="153.4" y="615.8" width="5.4" height="5.4" fill="#3b3a37"/><rect x="158.8" y="615.8" width="5.4" height="5.4" fill="#3b3a37"/><rect x="164.2" y="615.8" width="5.4" height="5.4" fill="#3b3a37"/><rect x="169.60000000000002" y="615.8" width="5.4" height="5.4" fill="#3b3a37"/><rect x="175" y="615.8" width="5.4" height="5.4" fill="#3b3a37"/><rect x="180.4" y="615.8" width="5.4" height="5.4" fill="#3b3a37"/><rect x="185.8" y="615.8" width="5.4" height="5.4" fill="#3b3a37"/><rect x="196.60000000000002" y="615.8" width="5.4" height="5.4" fill="#3b3a37"/><rect x="202" y="615.8" width="5.4" height="5.4" fill="#3b3a37"/><rect x="207.4" y="615.8" width="5.4" height="5.4" fill="#3b3a37"/><rect x="40" y="621.2" width="5.4" height="5.4" fill="#3b3a37"/><rect x="45.4" y="621.2" width="5.4" height="5.4" fill="#3b3a37"/><rect x="50.8" y="621.2" width="5.4" height="5.4" fill="#3b3a37"/><rect x="61.6" y="621.2" width="5.4" height="5.4" fill="#3b3a37"/><rect x="88.6" y="621.2" width="5.4" height="5.4" fill="#3b3a37"/><rect x="94" y="621.2" width="5.4" height="5.4" fill="#3b3a37"/><rect x="104.80000000000001" y="621.2" width="5.4" height="5.4" fill="#3b3a37"/><rect x="110.2" y="621.2" width="5.4" height="5.4" fill="#3b3a37"/><rect x="115.60000000000001" y="621.2" width="5.4" height="5.4" fill="#3b3a37"/><rect x="126.4" y="621.2" width="5.4" height="5.4" fill="#3b3a37"/><rect x="131.8" y="621.2" width="5.4" height="5.4" fill="#3b3a37"/><rect x="164.2" y="621.2" width="5.4" height="5.4" fill="#3b3a37"/><rect x="169.60000000000002" y="621.2" width="5.4" height="5.4" fill="#3b3a37"/><rect x="175" y="621.2" width="5.4" height="5.4" fill="#3b3a37"/><rect x="180.4" y="621.2" width="5.4" height="5.4" fill="#3b3a37"/><rect x="185.8" y="621.2" width="5.4" height="5.4" fill="#3b3a37"/><rect x="196.60000000000002" y="621.2" width="5.4" height="5.4" fill="#3b3a37"/><rect x="202" y="621.2" width="5.4" height="5.4" fill="#3b3a37"/><rect x="207.4" y="621.2" width="5.4" height="5.4" fill="#3b3a37"/><rect x="40" y="626.6" width="5.4" height="5.4" fill="#3b3a37"/><rect x="45.4" y="626.6" width="5.4" height="5.4" fill="#3b3a37"/><rect x="50.8" y="626.6" width="5.4" height="5.4" fill="#3b3a37"/><rect x="61.6" y="626.6" width="5.4" height="5.4" fill="#3b3a37"/><rect x="67" y="626.6" width="5.4" height="5.4" fill="#3b3a37"/><rect x="72.4" y="626.6" width="5.4" height="5.4" fill="#3b3a37"/><rect x="77.80000000000001" y="626.6" width="5.4" height="5.4" fill="#3b3a37"/><rect x="88.6" y="626.6" width="5.4" height="5.4" fill="#3b3a37"/><rect x="94" y="626.6" width="5.4" height="5.4" fill="#3b3a37"/><rect x="104.80000000000001" y="626.6" width="5.4" height="5.4" fill="#3b3a37"/><rect x="110.2" y="626.6" width="5.4" height="5.4" fill="#3b3a37"/><rect x="115.60000000000001" y="626.6" width="5.4" height="5.4" fill="#3b3a37"/><rect x="137.2" y="626.6" width="5.4" height="5.4" fill="#3b3a37"/><rect x="142.60000000000002" y="626.6" width="5.4" height="5.4" fill="#3b3a37"/><rect x="148" y="626.6" width="5.4" height="5.4" fill="#3b3a37"/><rect x="153.4" y="626.6" width="5.4" height="5.4" fill="#3b3a37"/><rect x="164.2" y="626.6" width="5.4" height="5.4" fill="#3b3a37"/><rect x="169.60000000000002" y="626.6" width="5.4" height="5.4" fill="#3b3a37"/><rect x="175" y="626.6" width="5.4" height="5.4" fill="#3b3a37"/><rect x="180.4" y="626.6" width="5.4" height="5.4" fill="#3b3a37"/><rect x="185.8" y="626.6" width="5.4" height="5.4" fill="#3b3a37"/><rect x="196.60000000000002" y="626.6" width="5.4" height="5.4" fill="#3b3a37"/><rect x="202" y="626.6" width="5.4" height="5.4" fill="#3b3a37"/><rect x="207.4" y="626.6" width="5.4" height="5.4" fill="#3b3a37"/><rect x="40" y="632" width="5.4" height="5.4" fill="#3b3a37"/><rect x="45.4" y="632" width="5.4" height="5.4" fill="#3b3a37"/><rect x="50.8" y="632" width="5.4" height="5.4" fill="#3b3a37"/><rect x="61.6" y="632" width="5.4" height="5.4" fill="#3b3a37"/><rect x="67" y="632" width="5.4" height="5.4" fill="#3b3a37"/><rect x="72.4" y="632" width="5.4" height="5.4" fill="#3b3a37"/><rect x="77.80000000000001" y="632" width="5.4" height="5.4" fill="#3b3a37"/><rect x="104.80000000000001" y="632" width="5.4" height="5.4" fill="#3b3a37"/><rect x="110.2" y="632" width="5.4" height="5.4" fill="#3b3a37"/><rect x="115.60000000000001" y="632" width="5.4" height="5.4" fill="#3b3a37"/><rect x="121" y="632" width="5.4" height="5.4" fill="#3b3a37"/><rect x="126.4" y="632" width="5.4" height="5.4" fill="#3b3a37"/><rect x="137.2" y="632" width="5.4" height="5.4" fill="#3b3a37"/><rect x="142.60000000000002" y="632" width="5.4" height="5.4" fill="#3b3a37"/><rect x="148" y="632" width="5.4" height="5.4" fill="#3b3a37"/><rect x="153.4" y="632" width="5.4" height="5.4" fill="#3b3a37"/><rect x="164.2" y="632" width="5.4" height="5.4" fill="#3b3a37"/><rect x="169.60000000000002" y="632" width="5.4" height="5.4" fill="#3b3a37"/><rect x="175" y="632" width="5.4" height="5.4" fill="#3b3a37"/><rect x="196.60000000000002" y="632" width="5.4" height="5.4" fill="#3b3a37"/><rect x="202" y="632" width="5.4" height="5.4" fill="#3b3a37"/><rect x="207.4" y="632" width="5.4" height="5.4" fill="#3b3a37"/><rect x="40" y="637.4" width="5.4" height="5.4" fill="#3b3a37"/><rect x="45.4" y="637.4" width="5.4" height="5.4" fill="#3b3a37"/><rect x="50.8" y="637.4" width="5.4" height="5.4" fill="#3b3a37"/><rect x="61.6" y="637.4" width="5.4" height="5.4" fill="#3b3a37"/><rect x="67" y="637.4" width="5.4" height="5.4" fill="#3b3a37"/><rect x="72.4" y="637.4" width="5.4" height="5.4" fill="#3b3a37"/><rect x="77.80000000000001" y="637.4" width="5.4" height="5.4" fill="#3b3a37"/><rect x="88.6" y="637.4" width="5.4" height="5.4" fill="#3b3a37"/><rect x="94" y="637.4" width="5.4" height="5.4" fill="#3b3a37"/><rect x="99.4" y="637.4" width="5.4" height="5.4" fill="#3b3a37"/><rect x="104.80000000000001" y="637.4" width="5.4" height="5.4" fill="#3b3a37"/><rect x="110.2" y="637.4" width="5.4" height="5.4" fill="#3b3a37"/><rect x="115.60000000000001" y="637.4" width="5.4" height="5.4" fill="#3b3a37"/><rect x="121" y="637.4" width="5.4" height="5.4" fill="#3b3a37"/><rect x="126.4" y="637.4" width="5.4" height="5.4" fill="#3b3a37"/><rect x="137.2" y="637.4" width="5.4" height="5.4" fill="#3b3a37"/><rect x="142.60000000000002" y="637.4" width="5.4" height="5.4" fill="#3b3a37"/><rect x="148" y="637.4" width="5.4" height="5.4" fill="#3b3a37"/><rect x="153.4" y="637.4" width="5.4" height="5.4" fill="#3b3a37"/><rect x="185.8" y="637.4" width="5.4" height="5.4" fill="#3b3a37"/><rect x="191.20000000000002" y="637.4" width="5.4" height="5.4" fill="#3b3a37"/><rect x="196.60000000000002" y="637.4" width="5.4" height="5.4" fill="#3b3a37"/><rect x="202" y="637.4" width="5.4" height="5.4" fill="#3b3a37"/><rect x="207.4" y="637.4" width="5.4" height="5.4" fill="#3b3a37"/><rect x="40" y="642.8" width="5.4" height="5.4" fill="#3b3a37"/><rect x="45.4" y="642.8" width="5.4" height="5.4" fill="#3b3a37"/><rect x="50.8" y="642.8" width="5.4" height="5.4" fill="#3b3a37"/><rect x="61.6" y="642.8" width="5.4" height="5.4" fill="#3b3a37"/><rect x="88.6" y="642.8" width="5.4" height="5.4" fill="#3b3a37"/><rect x="94" y="642.8" width="5.4" height="5.4" fill="#3b3a37"/><rect x="99.4" y="642.8" width="5.4" height="5.4" fill="#3b3a37"/><rect x="104.80000000000001" y="642.8" width="5.4" height="5.4" fill="#3b3a37"/><rect x="110.2" y="642.8" width="5.4" height="5.4" fill="#3b3a37"/><rect x="115.60000000000001" y="642.8" width="5.4" height="5.4" fill="#3b3a37"/><rect x="121" y="642.8" width="5.4" height="5.4" fill="#3b3a37"/><rect x="126.4" y="642.8" width="5.4" height="5.4" fill="#3b3a37"/><rect x="137.2" y="642.8" width="5.4" height="5.4" fill="#3b3a37"/><rect x="142.60000000000002" y="642.8" width="5.4" height="5.4" fill="#3b3a37"/><rect x="148" y="642.8" width="5.4" height="5.4" fill="#3b3a37"/><rect x="153.4" y="642.8" width="5.4" height="5.4" fill="#3b3a37"/><rect x="158.8" y="642.8" width="5.4" height="5.4" fill="#3b3a37"/><rect x="164.2" y="642.8" width="5.4" height="5.4" fill="#3b3a37"/><rect x="169.60000000000002" y="642.8" width="5.4" height="5.4" fill="#3b3a37"/><rect x="185.8" y="642.8" width="5.4" height="5.4" fill="#3b3a37"/><rect x="191.20000000000002" y="642.8" width="5.4" height="5.4" fill="#3b3a37"/><rect x="196.60000000000002" y="642.8" width="5.4" height="5.4" fill="#3b3a37"/><rect x="202" y="642.8" width="5.4" height="5.4" fill="#3b3a37"/><rect x="207.4" y="642.8" width="5.4" height="5.4" fill="#3b3a37"/><rect x="40" y="648.2" width="5.4" height="5.4" fill="#3b3a37"/><rect x="77.80000000000001" y="648.2" width="5.4" height="5.4" fill="#3b3a37"/><rect x="83.2" y="648.2" width="5.4" height="5.4" fill="#3b3a37"/><rect x="88.6" y="648.2" width="5.4" height="5.4" fill="#3b3a37"/><rect x="94" y="648.2" width="5.4" height="5.4" fill="#3b3a37"/><rect x="99.4" y="648.2" width="5.4" height="5.4" fill="#3b3a37"/><rect x="104.80000000000001" y="648.2" width="5.4" height="5.4" fill="#3b3a37"/><rect x="142.60000000000002" y="648.2" width="5.4" height="5.4" fill="#3b3a37"/><rect x="148" y="648.2" width="5.4" height="5.4" fill="#3b3a37"/><rect x="153.4" y="648.2" width="5.4" height="5.4" fill="#3b3a37"/><rect x="158.8" y="648.2" width="5.4" height="5.4" fill="#3b3a37"/><rect x="164.2" y="648.2" width="5.4" height="5.4" fill="#3b3a37"/><rect x="169.60000000000002" y="648.2" width="5.4" height="5.4" fill="#3b3a37"/><rect x="207.4" y="648.2" width="5.4" height="5.4" fill="#3b3a37"/><rect x="40" y="653.6" width="5.4" height="5.4" fill="#3b3a37"/><rect x="77.80000000000001" y="653.6" width="5.4" height="5.4" fill="#3b3a37"/><rect x="83.2" y="653.6" width="5.4" height="5.4" fill="#3b3a37"/><rect x="88.6" y="653.6" width="5.4" height="5.4" fill="#3b3a37"/><rect x="94" y="653.6" width="5.4" height="5.4" fill="#3b3a37"/><rect x="99.4" y="653.6" width="5.4" height="5.4" fill="#3b3a37"/><rect x="104.80000000000001" y="653.6" width="5.4" height="5.4" fill="#3b3a37"/><rect x="158.8" y="653.6" width="5.4" height="5.4" fill="#3b3a37"/><rect x="164.2" y="653.6" width="5.4" height="5.4" fill="#3b3a37"/><rect x="169.60000000000002" y="653.6" width="5.4" height="5.4" fill="#3b3a37"/><rect x="207.4" y="653.6" width="5.4" height="5.4" fill="#3b3a37"/><rect x="40" y="659" width="5.4" height="5.4" fill="#3b3a37"/><rect x="50.8" y="659" width="5.4" height="5.4" fill="#3b3a37"/><rect x="56.2" y="659" width="5.4" height="5.4" fill="#3b3a37"/><rect x="94" y="659" width="5.4" height="5.4" fill="#3b3a37"/><rect x="99.4" y="659" width="5.4" height="5.4" fill="#3b3a37"/><rect x="104.80000000000001" y="659" width="5.4" height="5.4" fill="#3b3a37"/><rect x="121" y="659" width="5.4" height="5.4" fill="#3b3a37"/><rect x="126.4" y="659" width="5.4" height="5.4" fill="#3b3a37"/><rect x="142.60000000000002" y="659" width="5.4" height="5.4" fill="#3b3a37"/><rect x="148" y="659" width="5.4" height="5.4" fill="#3b3a37"/><rect x="158.8" y="659" width="5.4" height="5.4" fill="#3b3a37"/><rect x="164.2" y="659" width="5.4" height="5.4" fill="#3b3a37"/><rect x="169.60000000000002" y="659" width="5.4" height="5.4" fill="#3b3a37"/><rect x="207.4" y="659" width="5.4" height="5.4" fill="#3b3a37"/><rect x="40" y="664.4" width="5.4" height="5.4" fill="#3b3a37"/><rect x="77.80000000000001" y="664.4" width="5.4" height="5.4" fill="#3b3a37"/><rect x="83.2" y="664.4" width="5.4" height="5.4" fill="#3b3a37"/><rect x="94" y="664.4" width="5.4" height="5.4" fill="#3b3a37"/><rect x="99.4" y="664.4" width="5.4" height="5.4" fill="#3b3a37"/><rect x="104.80000000000001" y="664.4" width="5.4" height="5.4" fill="#3b3a37"/><rect x="121" y="664.4" width="5.4" height="5.4" fill="#3b3a37"/><rect x="126.4" y="664.4" width="5.4" height="5.4" fill="#3b3a37"/><rect x="142.60000000000002" y="664.4" width="5.4" height="5.4" fill="#3b3a37"/><rect x="148" y="664.4" width="5.4" height="5.4" fill="#3b3a37"/><rect x="207.4" y="664.4" width="5.4" height="5.4" fill="#3b3a37"/><rect x="40" y="669.8" width="5.4" height="5.4" fill="#3b3a37"/><rect x="77.80000000000001" y="669.8" width="5.4" height="5.4" fill="#3b3a37"/><rect x="83.2" y="669.8" width="5.4" height="5.4" fill="#3b3a37"/><rect x="142.60000000000002" y="669.8" width="5.4" height="5.4" fill="#3b3a37"/><rect x="148" y="669.8" width="5.4" height="5.4" fill="#3b3a37"/><rect x="153.4" y="669.8" width="5.4" height="5.4" fill="#3b3a37"/><rect x="158.8" y="669.8" width="5.4" height="5.4" fill="#3b3a37"/><rect x="164.2" y="669.8" width="5.4" height="5.4" fill="#3b3a37"/><rect x="169.60000000000002" y="669.8" width="5.4" height="5.4" fill="#3b3a37"/><rect x="191.20000000000002" y="669.8" width="5.4" height="5.4" fill="#3b3a37"/><rect x="196.60000000000002" y="669.8" width="5.4" height="5.4" fill="#3b3a37"/><rect x="207.4" y="669.8" width="5.4" height="5.4" fill="#3b3a37"/><rect x="40" y="675.2" width="5.4" height="5.4" fill="#3b3a37"/><rect x="77.80000000000001" y="675.2" width="5.4" height="5.4" fill="#3b3a37"/><rect x="83.2" y="675.2" width="5.4" height="5.4" fill="#3b3a37"/><rect x="88.6" y="675.2" width="5.4" height="5.4" fill="#3b3a37"/><rect x="94" y="675.2" width="5.4" height="5.4" fill="#3b3a37"/><rect x="99.4" y="675.2" width="5.4" height="5.4" fill="#3b3a37"/><rect x="104.80000000000001" y="675.2" width="5.4" height="5.4" fill="#3b3a37"/><rect x="142.60000000000002" y="675.2" width="5.4" height="5.4" fill="#3b3a37"/><rect x="148" y="675.2" width="5.4" height="5.4" fill="#3b3a37"/><rect x="153.4" y="675.2" width="5.4" height="5.4" fill="#3b3a37"/><rect x="158.8" y="675.2" width="5.4" height="5.4" fill="#3b3a37"/><rect x="164.2" y="675.2" width="5.4" height="5.4" fill="#3b3a37"/><rect x="169.60000000000002" y="675.2" width="5.4" height="5.4" fill="#3b3a37"/><rect x="207.4" y="675.2" width="5.4" height="5.4" fill="#3b3a37"/><rect x="40" y="680.6" width="5.4" height="5.4" fill="#3b3a37"/><rect x="45.4" y="680.6" width="5.4" height="5.4" fill="#3b3a37"/><rect x="56.2" y="680.6" width="5.4" height="5.4" fill="#3b3a37"/><rect x="61.6" y="680.6" width="5.4" height="5.4" fill="#3b3a37"/><rect x="67" y="680.6" width="5.4" height="5.4" fill="#3b3a37"/><rect x="77.80000000000001" y="680.6" width="5.4" height="5.4" fill="#3b3a37"/><rect x="83.2" y="680.6" width="5.4" height="5.4" fill="#3b3a37"/><rect x="88.6" y="680.6" width="5.4" height="5.4" fill="#3b3a37"/><rect x="94" y="680.6" width="5.4" height="5.4" fill="#3b3a37"/><rect x="99.4" y="680.6" width="5.4" height="5.4" fill="#3b3a37"/><rect x="104.80000000000001" y="680.6" width="5.4" height="5.4" fill="#3b3a37"/><rect x="115.60000000000001" y="680.6" width="5.4" height="5.4" fill="#3b3a37"/><rect x="126.4" y="680.6" width="5.4" height="5.4" fill="#3b3a37"/><rect x="131.8" y="680.6" width="5.4" height="5.4" fill="#3b3a37"/><rect x="137.2" y="680.6" width="5.4" height="5.4" fill="#3b3a37"/><rect x="142.60000000000002" y="680.6" width="5.4" height="5.4" fill="#3b3a37"/><rect x="148" y="680.6" width="5.4" height="5.4" fill="#3b3a37"/><rect x="153.4" y="680.6" width="5.4" height="5.4" fill="#3b3a37"/><rect x="158.8" y="680.6" width="5.4" height="5.4" fill="#3b3a37"/><rect x="164.2" y="680.6" width="5.4" height="5.4" fill="#3b3a37"/><rect x="169.60000000000002" y="680.6" width="5.4" height="5.4" fill="#3b3a37"/><rect x="180.4" y="680.6" width="5.4" height="5.4" fill="#3b3a37"/><rect x="185.8" y="680.6" width="5.4" height="5.4" fill="#3b3a37"/><rect x="191.20000000000002" y="680.6" width="5.4" height="5.4" fill="#3b3a37"/><rect x="202" y="680.6" width="5.4" height="5.4" fill="#3b3a37"/><rect x="207.4" y="680.6" width="5.4" height="5.4" fill="#3b3a37"/><rect x="40" y="686" width="5.4" height="5.4" fill="#3b3a37"/><rect x="45.4" y="686" width="5.4" height="5.4" fill="#3b3a37"/><rect x="56.2" y="686" width="5.4" height="5.4" fill="#3b3a37"/><rect x="61.6" y="686" width="5.4" height="5.4" fill="#3b3a37"/><rect x="67" y="686" width="5.4" height="5.4" fill="#3b3a37"/><rect x="99.4" y="686" width="5.4" height="5.4" fill="#3b3a37"/><rect x="104.80000000000001" y="686" width="5.4" height="5.4" fill="#3b3a37"/><rect x="115.60000000000001" y="686" width="5.4" height="5.4" fill="#3b3a37"/><rect x="126.4" y="686" width="5.4" height="5.4" fill="#3b3a37"/><rect x="131.8" y="686" width="5.4" height="5.4" fill="#3b3a37"/><rect x="137.2" y="686" width="5.4" height="5.4" fill="#3b3a37"/><rect x="142.60000000000002" y="686" width="5.4" height="5.4" fill="#3b3a37"/><rect x="148" y="686" width="5.4" height="5.4" fill="#3b3a37"/><rect x="153.4" y="686" width="5.4" height="5.4" fill="#3b3a37"/><rect x="180.4" y="686" width="5.4" height="5.4" fill="#3b3a37"/><rect x="185.8" y="686" width="5.4" height="5.4" fill="#3b3a37"/><rect x="191.20000000000002" y="686" width="5.4" height="5.4" fill="#3b3a37"/><rect x="202" y="686" width="5.4" height="5.4" fill="#3b3a37"/><rect x="207.4" y="686" width="5.4" height="5.4" fill="#3b3a37"/><rect x="40" y="691.4" width="5.4" height="5.4" fill="#3b3a37"/><rect x="45.4" y="691.4" width="5.4" height="5.4" fill="#3b3a37"/><rect x="56.2" y="691.4" width="5.4" height="5.4" fill="#3b3a37"/><rect x="61.6" y="691.4" width="5.4" height="5.4" fill="#3b3a37"/><rect x="67" y="691.4" width="5.4" height="5.4" fill="#3b3a37"/><rect x="72.4" y="691.4" width="5.4" height="5.4" fill="#3b3a37"/><rect x="77.80000000000001" y="691.4" width="5.4" height="5.4" fill="#3b3a37"/><rect x="83.2" y="691.4" width="5.4" height="5.4" fill="#3b3a37"/><rect x="88.6" y="691.4" width="5.4" height="5.4" fill="#3b3a37"/><rect x="115.60000000000001" y="691.4" width="5.4" height="5.4" fill="#3b3a37"/><rect x="126.4" y="691.4" width="5.4" height="5.4" fill="#3b3a37"/><rect x="131.8" y="691.4" width="5.4" height="5.4" fill="#3b3a37"/><rect x="137.2" y="691.4" width="5.4" height="5.4" fill="#3b3a37"/><rect x="142.60000000000002" y="691.4" width="5.4" height="5.4" fill="#3b3a37"/><rect x="148" y="691.4" width="5.4" height="5.4" fill="#3b3a37"/><rect x="153.4" y="691.4" width="5.4" height="5.4" fill="#3b3a37"/><rect x="164.2" y="691.4" width="5.4" height="5.4" fill="#3b3a37"/><rect x="169.60000000000002" y="691.4" width="5.4" height="5.4" fill="#3b3a37"/><rect x="175" y="691.4" width="5.4" height="5.4" fill="#3b3a37"/><rect x="180.4" y="691.4" width="5.4" height="5.4" fill="#3b3a37"/><rect x="185.8" y="691.4" width="5.4" height="5.4" fill="#3b3a37"/><rect x="191.20000000000002" y="691.4" width="5.4" height="5.4" fill="#3b3a37"/><rect x="202" y="691.4" width="5.4" height="5.4" fill="#3b3a37"/><rect x="207.4" y="691.4" width="5.4" height="5.4" fill="#3b3a37"/><rect x="40" y="696.8" width="5.4" height="5.4" fill="#3b3a37"/><rect x="45.4" y="696.8" width="5.4" height="5.4" fill="#3b3a37"/><rect x="67" y="696.8" width="5.4" height="5.4" fill="#3b3a37"/><rect x="72.4" y="696.8" width="5.4" height="5.4" fill="#3b3a37"/><rect x="77.80000000000001" y="696.8" width="5.4" height="5.4" fill="#3b3a37"/><rect x="83.2" y="696.8" width="5.4" height="5.4" fill="#3b3a37"/><rect x="88.6" y="696.8" width="5.4" height="5.4" fill="#3b3a37"/><rect x="99.4" y="696.8" width="5.4" height="5.4" fill="#3b3a37"/><rect x="104.80000000000001" y="696.8" width="5.4" height="5.4" fill="#3b3a37"/><rect x="110.2" y="696.8" width="5.4" height="5.4" fill="#3b3a37"/><rect x="115.60000000000001" y="696.8" width="5.4" height="5.4" fill="#3b3a37"/><rect x="126.4" y="696.8" width="5.4" height="5.4" fill="#3b3a37"/><rect x="131.8" y="696.8" width="5.4" height="5.4" fill="#3b3a37"/><rect x="137.2" y="696.8" width="5.4" height="5.4" fill="#3b3a37"/><rect x="142.60000000000002" y="696.8" width="5.4" height="5.4" fill="#3b3a37"/><rect x="169.60000000000002" y="696.8" width="5.4" height="5.4" fill="#3b3a37"/><rect x="175" y="696.8" width="5.4" height="5.4" fill="#3b3a37"/><rect x="180.4" y="696.8" width="5.4" height="5.4" fill="#3b3a37"/><rect x="185.8" y="696.8" width="5.4" height="5.4" fill="#3b3a37"/><rect x="191.20000000000002" y="696.8" width="5.4" height="5.4" fill="#3b3a37"/><rect x="202" y="696.8" width="5.4" height="5.4" fill="#3b3a37"/><rect x="207.4" y="696.8" width="5.4" height="5.4" fill="#3b3a37"/><rect x="40" y="702.2" width="5.4" height="5.4" fill="#3b3a37"/><rect x="45.4" y="702.2" width="5.4" height="5.4" fill="#3b3a37"/><rect x="50.8" y="702.2" width="5.4" height="5.4" fill="#3b3a37"/><rect x="56.2" y="702.2" width="5.4" height="5.4" fill="#3b3a37"/><rect x="67" y="702.2" width="5.4" height="5.4" fill="#3b3a37"/><rect x="72.4" y="702.2" width="5.4" height="5.4" fill="#3b3a37"/><rect x="77.80000000000001" y="702.2" width="5.4" height="5.4" fill="#3b3a37"/><rect x="83.2" y="702.2" width="5.4" height="5.4" fill="#3b3a37"/><rect x="88.6" y="702.2" width="5.4" height="5.4" fill="#3b3a37"/><rect x="115.60000000000001" y="702.2" width="5.4" height="5.4" fill="#3b3a37"/><rect x="126.4" y="702.2" width="5.4" height="5.4" fill="#3b3a37"/><rect x="131.8" y="702.2" width="5.4" height="5.4" fill="#3b3a37"/><rect x="137.2" y="702.2" width="5.4" height="5.4" fill="#3b3a37"/><rect x="142.60000000000002" y="702.2" width="5.4" height="5.4" fill="#3b3a37"/><rect x="153.4" y="702.2" width="5.4" height="5.4" fill="#3b3a37"/><rect x="158.8" y="702.2" width="5.4" height="5.4" fill="#3b3a37"/><rect x="169.60000000000002" y="702.2" width="5.4" height="5.4" fill="#3b3a37"/><rect x="175" y="702.2" width="5.4" height="5.4" fill="#3b3a37"/><rect x="180.4" y="702.2" width="5.4" height="5.4" fill="#3b3a37"/><rect x="185.8" y="702.2" width="5.4" height="5.4" fill="#3b3a37"/><rect x="191.20000000000002" y="702.2" width="5.4" height="5.4" fill="#3b3a37"/><rect x="202" y="702.2" width="5.4" height="5.4" fill="#3b3a37"/><rect x="207.4" y="702.2" width="5.4" height="5.4" fill="#3b3a37"/><rect x="40" y="707.6" width="5.4" height="5.4" fill="#3b3a37"/><rect x="45.4" y="707.6" width="5.4" height="5.4" fill="#3b3a37"/><rect x="50.8" y="707.6" width="5.4" height="5.4" fill="#3b3a37"/><rect x="56.2" y="707.6" width="5.4" height="5.4" fill="#3b3a37"/><rect x="67" y="707.6" width="5.4" height="5.4" fill="#3b3a37"/><rect x="72.4" y="707.6" width="5.4" height="5.4" fill="#3b3a37"/><rect x="77.80000000000001" y="707.6" width="5.4" height="5.4" fill="#3b3a37"/><rect x="83.2" y="707.6" width="5.4" height="5.4" fill="#3b3a37"/><rect x="88.6" y="707.6" width="5.4" height="5.4" fill="#3b3a37"/><rect x="94" y="707.6" width="5.4" height="5.4" fill="#3b3a37"/><rect x="99.4" y="707.6" width="5.4" height="5.4" fill="#3b3a37"/><rect x="104.80000000000001" y="707.6" width="5.4" height="5.4" fill="#3b3a37"/><rect x="115.60000000000001" y="707.6" width="5.4" height="5.4" fill="#3b3a37"/><rect x="126.4" y="707.6" width="5.4" height="5.4" fill="#3b3a37"/><rect x="131.8" y="707.6" width="5.4" height="5.4" fill="#3b3a37"/><rect x="137.2" y="707.6" width="5.4" height="5.4" fill="#3b3a37"/><rect x="142.60000000000002" y="707.6" width="5.4" height="5.4" fill="#3b3a37"/><rect x="153.4" y="707.6" width="5.4" height="5.4" fill="#3b3a37"/><rect x="158.8" y="707.6" width="5.4" height="5.4" fill="#3b3a37"/><rect x="169.60000000000002" y="707.6" width="5.4" height="5.4" fill="#3b3a37"/><rect x="175" y="707.6" width="5.4" height="5.4" fill="#3b3a37"/><rect x="180.4" y="707.6" width="5.4" height="5.4" fill="#3b3a37"/><rect x="185.8" y="707.6" width="5.4" height="5.4" fill="#3b3a37"/><rect x="191.20000000000002" y="707.6" width="5.4" height="5.4" fill="#3b3a37"/><rect x="202" y="707.6" width="5.4" height="5.4" fill="#3b3a37"/><rect x="207.4" y="707.6" width="5.4" height="5.4" fill="#3b3a37"/><rect x="40" y="713" width="5.4" height="5.4" fill="#3b3a37"/><rect x="77.80000000000001" y="713" width="5.4" height="5.4" fill="#3b3a37"/><rect x="83.2" y="713" width="5.4" height="5.4" fill="#3b3a37"/><rect x="88.6" y="713" width="5.4" height="5.4" fill="#3b3a37"/><rect x="94" y="713" width="5.4" height="5.4" fill="#3b3a37"/><rect x="99.4" y="713" width="5.4" height="5.4" fill="#3b3a37"/><rect x="104.80000000000001" y="713" width="5.4" height="5.4" fill="#3b3a37"/><rect x="153.4" y="713" width="5.4" height="5.4" fill="#3b3a37"/><rect x="158.8" y="713" width="5.4" height="5.4" fill="#3b3a37"/><rect x="207.4" y="713" width="5.4" height="5.4" fill="#3b3a37"/><rect x="40" y="718.4" width="5.4" height="5.4" fill="#3b3a37"/><rect x="77.80000000000001" y="718.4" width="5.4" height="5.4" fill="#3b3a37"/><rect x="83.2" y="718.4" width="5.4" height="5.4" fill="#3b3a37"/><rect x="88.6" y="718.4" width="5.4" height="5.4" fill="#3b3a37"/><rect x="94" y="718.4" width="5.4" height="5.4" fill="#3b3a37"/><rect x="99.4" y="718.4" width="5.4" height="5.4" fill="#3b3a37"/><rect x="104.80000000000001" y="718.4" width="5.4" height="5.4" fill="#3b3a37"/><rect x="142.60000000000002" y="718.4" width="5.4" height="5.4" fill="#3b3a37"/><rect x="148" y="718.4" width="5.4" height="5.4" fill="#3b3a37"/><rect x="153.4" y="718.4" width="5.4" height="5.4" fill="#3b3a37"/><rect x="158.8" y="718.4" width="5.4" height="5.4" fill="#3b3a37"/><rect x="164.2" y="718.4" width="5.4" height="5.4" fill="#3b3a37"/><rect x="169.60000000000002" y="718.4" width="5.4" height="5.4" fill="#3b3a37"/><rect x="207.4" y="718.4" width="5.4" height="5.4" fill="#3b3a37"/><rect x="40" y="723.8" width="5.4" height="5.4" fill="#3b3a37"/><rect x="56.2" y="723.8" width="5.4" height="5.4" fill="#3b3a37"/><rect x="99.4" y="723.8" width="5.4" height="5.4" fill="#3b3a37"/><rect x="104.80000000000001" y="723.8" width="5.4" height="5.4" fill="#3b3a37"/><rect x="126.4" y="723.8" width="5.4" height="5.4" fill="#3b3a37"/><rect x="131.8" y="723.8" width="5.4" height="5.4" fill="#3b3a37"/><rect x="142.60000000000002" y="723.8" width="5.4" height="5.4" fill="#3b3a37"/><rect x="148" y="723.8" width="5.4" height="5.4" fill="#3b3a37"/><rect x="153.4" y="723.8" width="5.4" height="5.4" fill="#3b3a37"/><rect x="158.8" y="723.8" width="5.4" height="5.4" fill="#3b3a37"/><rect x="164.2" y="723.8" width="5.4" height="5.4" fill="#3b3a37"/><rect x="169.60000000000002" y="723.8" width="5.4" height="5.4" fill="#3b3a37"/><rect x="207.4" y="723.8" width="5.4" height="5.4" fill="#3b3a37"/><rect x="40" y="729.2" width="5.4" height="5.4" fill="#3b3a37"/><rect x="56.2" y="729.2" width="5.4" height="5.4" fill="#3b3a37"/><rect x="77.80000000000001" y="729.2" width="5.4" height="5.4" fill="#3b3a37"/><rect x="83.2" y="729.2" width="5.4" height="5.4" fill="#3b3a37"/><rect x="88.6" y="729.2" width="5.4" height="5.4" fill="#3b3a37"/><rect x="99.4" y="729.2" width="5.4" height="5.4" fill="#3b3a37"/><rect x="104.80000000000001" y="729.2" width="5.4" height="5.4" fill="#3b3a37"/><rect x="191.20000000000002" y="729.2" width="5.4" height="5.4" fill="#3b3a37"/><rect x="207.4" y="729.2" width="5.4" height="5.4" fill="#3b3a37"/><rect x="40" y="734.6" width="5.4" height="5.4" fill="#3b3a37"/><rect x="77.80000000000001" y="734.6" width="5.4" height="5.4" fill="#3b3a37"/><rect x="83.2" y="734.6" width="5.4" height="5.4" fill="#3b3a37"/><rect x="88.6" y="734.6" width="5.4" height="5.4" fill="#3b3a37"/><rect x="142.60000000000002" y="734.6" width="5.4" height="5.4" fill="#3b3a37"/><rect x="148" y="734.6" width="5.4" height="5.4" fill="#3b3a37"/><rect x="153.4" y="734.6" width="5.4" height="5.4" fill="#3b3a37"/><rect x="158.8" y="734.6" width="5.4" height="5.4" fill="#3b3a37"/><rect x="164.2" y="734.6" width="5.4" height="5.4" fill="#3b3a37"/><rect x="169.60000000000002" y="734.6" width="5.4" height="5.4" fill="#3b3a37"/><rect x="191.20000000000002" y="734.6" width="5.4" height="5.4" fill="#3b3a37"/><rect x="207.4" y="734.6" width="5.4" height="5.4" fill="#3b3a37"/><rect x="40" y="740" width="5.4" height="5.4" fill="#3b3a37"/><rect x="77.80000000000001" y="740" width="5.4" height="5.4" fill="#3b3a37"/><rect x="83.2" y="740" width="5.4" height="5.4" fill="#3b3a37"/><rect x="88.6" y="740" width="5.4" height="5.4" fill="#3b3a37"/><rect x="94" y="740" width="5.4" height="5.4" fill="#3b3a37"/><rect x="99.4" y="740" width="5.4" height="5.4" fill="#3b3a37"/><rect x="104.80000000000001" y="740" width="5.4" height="5.4" fill="#3b3a37"/><rect x="142.60000000000002" y="740" width="5.4" height="5.4" fill="#3b3a37"/><rect x="148" y="740" width="5.4" height="5.4" fill="#3b3a37"/><rect x="153.4" y="740" width="5.4" height="5.4" fill="#3b3a37"/><rect x="158.8" y="740" width="5.4" height="5.4" fill="#3b3a37"/><rect x="164.2" y="740" width="5.4" height="5.4" fill="#3b3a37"/><rect x="169.60000000000002" y="740" width="5.4" height="5.4" fill="#3b3a37"/><rect x="207.4" y="740" width="5.4" height="5.4" fill="#3b3a37"/><rect x="40" y="745.4" width="5.4" height="5.4" fill="#3b3a37"/><rect x="45.4" y="745.4" width="5.4" height="5.4" fill="#3b3a37"/><rect x="50.8" y="745.4" width="5.4" height="5.4" fill="#3b3a37"/><rect x="56.2" y="745.4" width="5.4" height="5.4" fill="#3b3a37"/><rect x="61.6" y="745.4" width="5.4" height="5.4" fill="#3b3a37"/><rect x="67" y="745.4" width="5.4" height="5.4" fill="#3b3a37"/><rect x="72.4" y="745.4" width="5.4" height="5.4" fill="#3b3a37"/><rect x="77.80000000000001" y="745.4" width="5.4" height="5.4" fill="#3b3a37"/><rect x="83.2" y="745.4" width="5.4" height="5.4" fill="#3b3a37"/><rect x="88.6" y="745.4" width="5.4" height="5.4" fill="#3b3a37"/><rect x="94" y="745.4" width="5.4" height="5.4" fill="#3b3a37"/><rect x="99.4" y="745.4" width="5.4" height="5.4" fill="#3b3a37"/><rect x="104.80000000000001" y="745.4" width="5.4" height="5.4" fill="#3b3a37"/><rect x="110.2" y="745.4" width="5.4" height="5.4" fill="#3b3a37"/><rect x="115.60000000000001" y="745.4" width="5.4" height="5.4" fill="#3b3a37"/><rect x="121" y="745.4" width="5.4" height="5.4" fill="#3b3a37"/><rect x="126.4" y="745.4" width="5.4" height="5.4" fill="#3b3a37"/><rect x="131.8" y="745.4" width="5.4" height="5.4" fill="#3b3a37"/><rect x="137.2" y="745.4" width="5.4" height="5.4" fill="#3b3a37"/><rect x="142.60000000000002" y="745.4" width="5.4" height="5.4" fill="#3b3a37"/><rect x="148" y="745.4" width="5.4" height="5.4" fill="#3b3a37"/><rect x="153.4" y="745.4" width="5.4" height="5.4" fill="#3b3a37"/><rect x="158.8" y="745.4" width="5.4" height="5.4" fill="#3b3a37"/><rect x="164.2" y="745.4" width="5.4" height="5.4" fill="#3b3a37"/><rect x="169.60000000000002" y="745.4" width="5.4" height="5.4" fill="#3b3a37"/><rect x="175" y="745.4" width="5.4" height="5.4" fill="#3b3a37"/><rect x="180.4" y="745.4" width="5.4" height="5.4" fill="#3b3a37"/><rect x="185.8" y="745.4" width="5.4" height="5.4" fill="#3b3a37"/><rect x="191.20000000000002" y="745.4" width="5.4" height="5.4" fill="#3b3a37"/><rect x="196.60000000000002" y="745.4" width="5.4" height="5.4" fill="#3b3a37"/><rect x="202" y="745.4" width="5.4" height="5.4" fill="#3b3a37"/><rect x="207.4" y="745.4" width="5.4" height="5.4" fill="#3b3a37"/><text x="240.8" y="612" font-size="22" font-weight="800" fill="#2b2a28">HMC001 — 32×32</text><text x="240.8" y="642" font-size="16" fill="#3b3a37">参考解 (LaCAM* 300 秒): Div.1 55 × 3016 / Div.2 50 × 1132</text><text x="240.8" y="668" font-size="16" fill="#3b3a37">下限: Div.1 55 × 2806 / Div.2 44 × 1072 — 両 Div とも 1 位がソルバー超え</text><text x="240.8" y="700" font-size="16" fill="#5b5852">ステージは rated で残っています．ご参加ありがとうございました!</text><text x="600" y="766" font-size="15" fill="#7a776f" text-anchor="middle">hirokinagai-39.github.io/human-mapf</text></svg>