<svg xmlns="http://www.w3.org/2000/svg" width="1200" height="630" viewBox="0 0 1200 630" font-family="'Helvetica Neue', Helvetica, Arial, 'Hiragino Sans', 'Noto Sans JP', sans-serif">
<defs>
  <linearGradient id="bg" x1="0" y1="0" x2="1" y2="1"><stop offset="0" stop-color="#ece8df"/><stop offset="1" stop-color="#e2ddd2"/></linearGradient>
  <filter id="shadow" x="-10%" y="-10%" width="130%" height="130%"><feDropShadow dx="0" dy="6" stdDeviation="8" flood-color="#000" flood-opacity="0.22"/></filter>
  <filter id="soft" x="-20%" y="-20%" width="140%" height="140%"><feDropShadow dx="0" dy="2" stdDeviation="2" flood-color="#000" flood-opacity="0.25"/></filter>
</defs>
<rect width="1200" height="630" fill="url(#bg)"/>
<g filter="url(#shadow)"><rect x="40" y="65" width="480" height="480" rx="8" fill="#f4f1ea"/></g><g stroke="#000" stroke-opacity="0.08" stroke-width="1"><line x1="88" y1="65" x2="88" y2="545"/><line x1="136" y1="65" x2="136" y2="545"/><line x1="184" y1="65" x2="184" y2="545"/><line x1="232" y1="65" x2="232" y2="545"/><line x1="280" y1="65" x2="280" y2="545"/><line x1="328" y1="65" x2="328" y2="545"/><line x1="376" y1="65" x2="376" y2="545"/><line x1="424" y1="65" x2="424" y2="545"/><line x1="472" y1="65" x2="472" y2="545"/><line x1="40" y1="113" x2="520" y2="113"/><line x1="40" y1="161" x2="520" y2="161"/><line x1="40" y1="209" x2="520" y2="209"/><line x1="40" y1="257" x2="520" y2="257"/><line x1="40" y1="305" x2="520" y2="305"/><line x1="40" y1="353" x2="520" y2="353"/><line x1="40" y1="401" x2="520" y2="401"/><line x1="40" y1="449" x2="520" y2="449"/><line x1="40" y1="497" x2="520" y2="497"/></g><rect x="233" y="162" width="46" height="46" rx="3" fill="#3b3a37"/><rect x="473" y="162" width="46" height="46" rx="3" fill="#3b3a37"/><rect x="89" y="210" width="46" height="46" rx="3" fill="#3b3a37"/><rect x="233" y="258" width="46" height="46" rx="3" fill="#3b3a37"/><rect x="185" y="306" width="46" height="46" rx="3" fill="#3b3a37"/><rect x="233" y="306" width="46" height="46" rx="3" fill="#3b3a37"/><rect x="425" y="306" width="46" height="46" rx="3" fill="#3b3a37"/><rect x="89" y="354" width="46" height="46" rx="3" fill="#3b3a37"/><rect x="185" y="402" width="46" height="46" rx="3" fill="#3b3a37"/><rect x="89" y="450" width="46" height="46" rx="3" fill="#3b3a37"/><rect x="233" y="498" width="46" height="46" rx="3" fill="#3b3a37"/><rect x="473" y="498" width="46" height="46" rx="3" fill="#3b3a37"/><rect x="142.72" y="311.72" width="34.56" height="34.56" rx="3" fill="hsl(0.0, 70%, 50%)" fill-opacity="0.15" stroke="hsl(0.0, 70%, 50%)" stroke-width="2"/><text x="160" y="330" font-size="18.240000000000002" font-weight="700" fill="hsl(0.0, 70%, 50%)" text-anchor="middle" dominant-baseline="middle">1</text><rect x="334.72" y="311.72" width="34.56" height="34.56" rx="3" fill="hsl(137.5, 70%, 50%)" fill-opacity="0.15" stroke="hsl(137.5, 70%, 50%)" stroke-width="2"/><text x="352" y="330" font-size="18.240000000000002" font-weight="700" fill="hsl(137.5, 70%, 50%)" text-anchor="middle" dominant-baseline="middle">2</text><rect x="334.72" y="215.72" width="34.56" height="34.56" rx="3" fill="hsl(275.0, 70%, 50%)" fill-opacity="0.15" stroke="hsl(275.0, 70%, 50%)" stroke-width="2"/><text x="352" y="234" font-size="18.240000000000002" font-weight="700" fill="hsl(275.0, 70%, 50%)" text-anchor="middle" dominant-baseline="middle">3</text><rect x="430.72" y="263.72" width="34.56" height="34.56" rx="3" fill="hsl(52.5, 70%, 50%)" fill-opacity="0.15" stroke="hsl(52.5, 70%, 50%)" stroke-width="2"/><text x="448" y="282" font-size="18.240000000000002" font-weight="700" fill="hsl(52.5, 70%, 50%)" text-anchor="middle" dominant-baseline="middle">4</text><rect x="478.72" y="215.72" width="34.56" height="34.56" rx="3" fill="hsl(190.0, 70%, 50%)" fill-opacity="0.15" stroke="hsl(190.0, 70%, 50%)" stroke-width="2"/><text x="496" y="234" font-size="18.240000000000002" font-weight="700" fill="hsl(190.0, 70%, 50%)" text-anchor="middle" dominant-baseline="middle">5</text><rect x="430.72" y="167.72" width="34.56" height="34.56" rx="3" fill="hsl(327.5, 70%, 50%)" fill-opacity="0.15" stroke="hsl(327.5, 70%, 50%)" stroke-width="2"/><text x="448" y="186" font-size="18.240000000000002" font-weight="700" fill="hsl(327.5, 70%, 50%)" text-anchor="middle" dominant-baseline="middle">6</text><rect x="94.72" y="167.72" width="34.56" height="34.56" rx="3" fill="hsl(105.0, 70%, 50%)" fill-opacity="0.15" stroke="hsl(105.0, 70%, 50%)" stroke-width="2"/><text x="112" y="186" font-size="18.240000000000002" font-weight="700" fill="hsl(105.0, 70%, 50%)" text-anchor="middle" dominant-baseline="middle">7</text><rect x="142.72" y="455.72" width="34.56" height="34.56" rx="3" fill="hsl(242.6, 70%, 50%)" fill-opacity="0.15" stroke="hsl(242.6, 70%, 50%)" stroke-width="2"/><text x="160" y="474" font-size="18.240000000000002" font-weight="700" fill="hsl(242.6, 70%, 50%)" text-anchor="middle" dominant-baseline="middle">8</text><line x1="64" y1="473" x2="64" y2="425" stroke="hsl(0.0, 70%, 50%)" stroke-width="3.5" stroke-linecap="round" stroke-opacity="0.85"/><polygon points="64,444.104 68.488,453.08 59.512,453.08" fill="hsl(0.0, 70%, 50%)"/><line x1="64" y1="425" x2="112" y2="425" stroke="hsl(0.0, 70%, 50%)" stroke-width="3.5" stroke-linecap="round" stroke-opacity="0.85"/><polygon points="92.896,425 83.92,429.488 83.92,420.512" fill="hsl(0.0, 70%, 50%)"/><line x1="112" y1="425" x2="160" y2="425" stroke="hsl(0.0, 70%, 50%)" stroke-width="3.5" stroke-linecap="round" stroke-opacity="0.85"/><polygon points="140.896,425 131.92,429.488 131.92,420.512" fill="hsl(0.0, 70%, 50%)"/><line x1="160" y1="425" x2="160" y2="377" stroke="hsl(0.0, 70%, 50%)" stroke-width="3.5" stroke-linecap="round" stroke-opacity="0.85"/><polygon points="160,396.104 164.488,405.08 155.512,405.08" fill="hsl(0.0, 70%, 50%)"/><line x1="160" y1="377" x2="160" y2="329" stroke="hsl(0.0, 70%, 50%)" stroke-width="3.5" stroke-linecap="round" stroke-opacity="0.85"/><polygon points="160,348.104 164.488,357.08 155.512,357.08" fill="hsl(0.0, 70%, 50%)"/><line x1="448" y1="473" x2="400" y2="473" stroke="hsl(137.5, 70%, 50%)" stroke-width="3.5" stroke-linecap="round" stroke-opacity="0.85"/><polygon points="419.104,473 428.08,468.512 428.08,477.488" fill="hsl(137.5, 70%, 50%)"/><line x1="400" y1="473" x2="352" y2="473" stroke="hsl(137.5, 70%, 50%)" stroke-width="3.5" stroke-linecap="round" stroke-opacity="0.85"/><polygon points="371.104,473 380.08,468.512 380.08,477.488" fill="hsl(137.5, 70%, 50%)"/><line x1="256" y1="377" x2="304" y2="377" stroke="hsl(275.0, 70%, 50%)" stroke-width="3.5" stroke-linecap="round" stroke-opacity="0.85"/><polygon points="284.896,377 275.92,381.488 275.92,372.512" fill="hsl(275.0, 70%, 50%)"/><line x1="304" y1="377" x2="352" y2="377" stroke="hsl(275.0, 70%, 50%)" stroke-width="3.5" stroke-linecap="round" stroke-opacity="0.85"/><polygon points="332.896,377 323.92,381.488 323.92,372.512" fill="hsl(275.0, 70%, 50%)"/><line x1="352" y1="377" x2="352" y2="329" stroke="hsl(275.0, 70%, 50%)" stroke-width="3.5" stroke-linecap="round" stroke-opacity="0.85"/><polygon points="352,348.104 356.488,357.08 347.512,357.08" fill="hsl(275.0, 70%, 50%)"/><line x1="352" y1="329" x2="352" y2="281" stroke="hsl(275.0, 70%, 50%)" stroke-width="3.5" stroke-linecap="round" stroke-opacity="0.85"/><polygon points="352,300.104 356.488,309.08 347.512,309.08" fill="hsl(275.0, 70%, 50%)"/><circle cx="352" cy="281" r="4.800000000000001" fill="hsl(275.0, 70%, 50%)"/><line x1="352" y1="281" x2="352" y2="233" stroke="hsl(275.0, 70%, 50%)" stroke-width="3.5" stroke-linecap="round" stroke-opacity="0.85"/><polygon points="352,252.104 356.488,261.08 347.512,261.08" fill="hsl(275.0, 70%, 50%)"/><line x1="160" y1="185" x2="208" y2="185" stroke="hsl(52.5, 70%, 50%)" stroke-width="3.5" stroke-linecap="round" stroke-opacity="0.85"/><polygon points="188.896,185 179.92,189.488 179.92,180.512" fill="hsl(52.5, 70%, 50%)"/><line x1="208" y1="185" x2="208" y2="233" stroke="hsl(52.5, 70%, 50%)" stroke-width="3.5" stroke-linecap="round" stroke-opacity="0.85"/><polygon points="208,213.896 203.512,204.92 212.488,204.92" fill="hsl(52.5, 70%, 50%)"/><line x1="208" y1="233" x2="256" y2="233" stroke="hsl(52.5, 70%, 50%)" stroke-width="3.5" stroke-linecap="round" stroke-opacity="0.85"/><polygon points="236.896,233 227.92,237.488 227.92,228.512" fill="hsl(52.5, 70%, 50%)"/><line x1="256" y1="233" x2="304" y2="233" stroke="hsl(52.5, 70%, 50%)" stroke-width="3.5" stroke-linecap="round" stroke-opacity="0.85"/><polygon points="284.896,233 275.92,237.488 275.92,228.512" fill="hsl(52.5, 70%, 50%)"/><line x1="304" y1="233" x2="352" y2="233" stroke="hsl(52.5, 70%, 50%)" stroke-width="3.5" stroke-linecap="round" stroke-opacity="0.85"/><polygon points="332.896,233 323.92,237.488 323.92,228.512" fill="hsl(52.5, 70%, 50%)"/><line x1="352" y1="233" x2="400" y2="233" stroke="hsl(52.5, 70%, 50%)" stroke-width="3.5" stroke-linecap="round" stroke-opacity="0.85"/><polygon points="380.896,233 371.92,237.488 371.92,228.512" fill="hsl(52.5, 70%, 50%)"/><line x1="400" y1="233" x2="448" y2="233" stroke="hsl(52.5, 70%, 50%)" stroke-width="3.5" stroke-linecap="round" stroke-opacity="0.85"/><polygon points="428.896,233 419.92,237.488 419.92,228.512" fill="hsl(52.5, 70%, 50%)"/><line x1="451.84" y1="233" x2="451.84" y2="281" stroke="hsl(52.5, 70%, 50%)" stroke-width="3.5" stroke-linecap="round" stroke-opacity="0.85"/><polygon points="451.84,261.896 447.352,252.92 456.328,252.92" fill="hsl(52.5, 70%, 50%)"/><line x1="352" y1="473" x2="352" y2="425" stroke="hsl(190.0, 70%, 50%)" stroke-width="3.5" stroke-linecap="round" stroke-opacity="0.85"/><polygon points="352,444.104 356.488,453.08 347.512,453.08" fill="hsl(190.0, 70%, 50%)"/><line x1="352" y1="425" x2="400" y2="425" stroke="hsl(190.0, 70%, 50%)" stroke-width="3.5" stroke-linecap="round" stroke-opacity="0.85"/><polygon points="380.896,425 371.92,429.488 371.92,420.512" fill="hsl(190.0, 70%, 50%)"/><line x1="400" y1="425" x2="448" y2="425" stroke="hsl(190.0, 70%, 50%)" stroke-width="3.5" stroke-linecap="round" stroke-opacity="0.85"/><polygon points="428.896,425 419.92,429.488 419.92,420.512" fill="hsl(190.0, 70%, 50%)"/><line x1="448" y1="425" x2="496" y2="425" stroke="hsl(190.0, 70%, 50%)" stroke-width="3.5" stroke-linecap="round" stroke-opacity="0.85"/><polygon points="476.896,425 467.92,429.488 467.92,420.512" fill="hsl(190.0, 70%, 50%)"/><line x1="496" y1="425" x2="496" y2="377" stroke="hsl(190.0, 70%, 50%)" stroke-width="3.5" stroke-linecap="round" stroke-opacity="0.85"/><polygon points="496,396.104 500.488,405.08 491.512,405.08" fill="hsl(190.0, 70%, 50%)"/><line x1="352" y1="281" x2="400" y2="281" stroke="hsl(327.5, 70%, 50%)" stroke-width="3.5" stroke-linecap="round" stroke-opacity="0.85"/><polygon points="380.896,281 371.92,285.488 371.92,276.512" fill="hsl(327.5, 70%, 50%)"/><line x1="400" y1="281" x2="448" y2="281" stroke="hsl(327.5, 70%, 50%)" stroke-width="3.5" stroke-linecap="round" stroke-opacity="0.85"/><polygon points="428.896,281 419.92,285.488 419.92,276.512" fill="hsl(327.5, 70%, 50%)"/><line x1="451.84" y1="281" x2="451.84" y2="233" stroke="hsl(327.5, 70%, 50%)" stroke-width="3.5" stroke-linecap="round" stroke-opacity="0.85"/><polygon points="451.84,252.104 456.328,261.08 447.352,261.08" fill="hsl(327.5, 70%, 50%)"/><line x1="448" y1="233" x2="448" y2="185" stroke="hsl(327.5, 70%, 50%)" stroke-width="3.5" stroke-linecap="round" stroke-opacity="0.85"/><polygon points="448,204.104 452.488,213.08 443.512,213.08" fill="hsl(327.5, 70%, 50%)"/><line x1="352" y1="89" x2="304" y2="89" stroke="hsl(105.0, 70%, 50%)" stroke-width="3.5" stroke-linecap="round" stroke-opacity="0.85"/><polygon points="323.104,89 332.08,84.512 332.08,93.488" fill="hsl(105.0, 70%, 50%)"/><line x1="304" y1="89" x2="256" y2="89" stroke="hsl(105.0, 70%, 50%)" stroke-width="3.5" stroke-linecap="round" stroke-opacity="0.85"/><polygon points="275.104,89 284.08,84.512 284.08,93.488" fill="hsl(105.0, 70%, 50%)"/><line x1="256" y1="89" x2="208" y2="89" stroke="hsl(105.0, 70%, 50%)" stroke-width="3.5" stroke-linecap="round" stroke-opacity="0.85"/><polygon points="227.104,89 236.08,84.512 236.08,93.488" fill="hsl(105.0, 70%, 50%)"/><line x1="208" y1="89" x2="160" y2="89" stroke="hsl(105.0, 70%, 50%)" stroke-width="3.5" stroke-linecap="round" stroke-opacity="0.85"/><polygon points="179.104,89 188.08,84.512 188.08,93.488" fill="hsl(105.0, 70%, 50%)"/><line x1="160" y1="89" x2="112" y2="89" stroke="hsl(105.0, 70%, 50%)" stroke-width="3.5" stroke-linecap="round" stroke-opacity="0.85"/><polygon points="131.104,89 140.08,84.512 140.08,93.488" fill="hsl(105.0, 70%, 50%)"/><line x1="112" y1="89" x2="112" y2="137" stroke="hsl(105.0, 70%, 50%)" stroke-width="3.5" stroke-linecap="round" stroke-opacity="0.85"/><polygon points="112,117.896 107.512,108.92 116.488,108.92" fill="hsl(105.0, 70%, 50%)"/><line x1="112" y1="137" x2="112" y2="185" stroke="hsl(105.0, 70%, 50%)" stroke-width="3.5" stroke-linecap="round" stroke-opacity="0.85"/><polygon points="112,165.896 107.512,156.92 116.488,156.92" fill="hsl(105.0, 70%, 50%)"/><line x1="304" y1="521" x2="304" y2="473" stroke="hsl(242.6, 70%, 50%)" stroke-width="3.5" stroke-linecap="round" stroke-opacity="0.85"/><polygon points="304,492.104 308.488,501.08 299.512,501.08" fill="hsl(242.6, 70%, 50%)"/><circle cx="64" cy="473" r="6.720000000000001" fill="hsl(0.0, 70%, 50%)" fill-opacity="0.6"/><circle cx="448" cy="473" r="6.720000000000001" fill="hsl(137.5, 70%, 50%)" fill-opacity="0.6"/><circle cx="256" cy="377" r="6.720000000000001" fill="hsl(275.0, 70%, 50%)" fill-opacity="0.6"/><circle cx="160" cy="185" r="6.720000000000001" fill="hsl(52.5, 70%, 50%)" fill-opacity="0.6"/><circle cx="352" cy="473" r="6.720000000000001" fill="hsl(190.0, 70%, 50%)" fill-opacity="0.6"/><circle cx="352" cy="281" r="6.720000000000001" fill="hsl(327.5, 70%, 50%)" fill-opacity="0.6"/><circle cx="352" cy="89" r="6.720000000000001" fill="hsl(105.0, 70%, 50%)" fill-opacity="0.6"/><circle cx="304" cy="521" r="6.720000000000001" fill="hsl(242.6, 70%, 50%)" fill-opacity="0.6"/><g filter="url(#soft)"><circle cx="160" cy="329" r="17.759999999999998" fill="hsl(0.0, 70%, 50%)" stroke="#fff" stroke-width="2"/></g><text x="160" y="330" font-size="19.535999999999998" font-weight="700" fill="#fff" text-anchor="middle" dominant-baseline="middle">1</text><g filter="url(#soft)"><circle cx="352" cy="473" r="17.759999999999998" fill="hsl(137.5, 70%, 50%)" stroke="#fff" stroke-width="2"/></g><text x="352" y="474" font-size="19.535999999999998" font-weight="700" fill="#fff" text-anchor="middle" dominant-baseline="middle">2</text><g filter="url(#soft)"><circle cx="352" cy="233" r="17.759999999999998" fill="hsl(275.0, 70%, 50%)" stroke="#fff" stroke-width="2"/></g><text x="352" y="234" font-size="19.535999999999998" font-weight="700" fill="#fff" text-anchor="middle" dominant-baseline="middle">3</text><g filter="url(#soft)"><circle cx="448" cy="281" r="17.759999999999998" fill="hsl(52.5, 70%, 50%)" stroke="#fff" stroke-width="2"/></g><text x="448" y="282" font-size="19.535999999999998" font-weight="700" fill="#fff" text-anchor="middle" dominant-baseline="middle">4</text><g filter="url(#soft)"><circle cx="496" cy="377" r="17.759999999999998" fill="hsl(190.0, 70%, 50%)" stroke="#fff" stroke-width="2"/></g><text x="496" y="378" font-size="19.535999999999998" font-weight="700" fill="#fff" text-anchor="middle" dominant-baseline="middle">5</text><g filter="url(#soft)"><circle cx="448" cy="185" r="17.759999999999998" fill="hsl(327.5, 70%, 50%)" stroke="#fff" stroke-width="2"/></g><text x="448" y="186" font-size="19.535999999999998" font-weight="700" fill="#fff" text-anchor="middle" dominant-baseline="middle">6</text><g filter="url(#soft)"><circle cx="112" cy="185" r="17.759999999999998" fill="hsl(105.0, 70%, 50%)" stroke="#fff" stroke-width="2"/></g><text x="112" y="186" font-size="19.535999999999998" font-weight="700" fill="#fff" text-anchor="middle" dominant-baseline="middle">7</text><g filter="url(#soft)"><circle cx="304" cy="473" r="17.759999999999998" fill="hsl(242.6, 70%, 50%)" stroke="#fff" stroke-width="2"/></g><text x="304" y="474" font-size="19.535999999999998" font-weight="700" fill="#fff" text-anchor="middle" dominant-baseline="middle">8</text><g transform="translate(356 478) scale(0.95)" filter="url(#soft)">
    <path d="M6 20 L6 4 Q6 0 9.5 0 Q13 0 13 4 L13 14 L15 13 Q18 12 19 14 L21 13 Q24 12 25 14.5 L27 14 Q30 13.5 30.5 16 L30.5 26 Q30 36 22 38 L14 38 Q9 38 6 33 L0 24 Q-1.5 21 1.5 19.5 Q4 18.5 6 20 Z" fill="#fff" stroke="#2b2a28" stroke-width="2.2" stroke-linejoin="round"/>
  </g><text x="40" y="571" font-size="14" fill="#666">Random 10×10 — 8 agents</text><text x="600" y="240" font-size="72" font-weight="800" fill="#2b2a28" letter-spacing="0.5">Human MAPF</text><text x="600" y="290" font-size="27" font-weight="600" fill="#3b3a37">人力マルチエージェント経路計画</text><text x="600" y="324" font-size="19" fill="#666">Multi-Agent Path Finding, solved by hand</text><text x="600" y="392" font-size="20" fill="#2b2a28">全員をぶつけずにゴールへ。</text><text x="600" y="424" font-size="20" fill="#2b2a28">makespan と total distance で MAPF ソルバーに挑め。</text><text x="600" y="560" font-size="15" fill="#777">hirokinagai-39.github.io/human-mapf — ブラウザで無料 / 日本語・英語対応</text></svg>
