<svg xmlns="http://www.w3.org/2000/svg" width="1200" height="630" viewBox="0 0 1200 630" font-family="'Helvetica Neue', Helvetica, Arial, 'Hiragino Sans', 'Noto Sans JP', sans-serif">
<defs>
  <linearGradient id="bg" x1="0" y1="0" x2="1" y2="1"><stop offset="0" stop-color="#ece8df"/><stop offset="1" stop-color="#e2ddd2"/></linearGradient>
  <filter id="shadow" x="-10%" y="-10%" width="130%" height="130%"><feDropShadow dx="0" dy="6" stdDeviation="8" flood-color="#000" flood-opacity="0.22"/></filter>
  <filter id="soft" x="-20%" y="-20%" width="140%" height="140%"><feDropShadow dx="0" dy="2" stdDeviation="2" flood-color="#000" flood-opacity="0.25"/></filter>
</defs>
<rect width="1200" height="630" fill="url(#bg)"/>
<g filter="url(#shadow)"><rect x="36" y="95" width="616" height="440" rx="8" fill="#f4f1ea"/></g><g stroke="#000" stroke-opacity="0.08" stroke-width="1"><line x1="80" y1="95" x2="80" y2="535"/><line x1="124" y1="95" x2="124" y2="535"/><line x1="168" y1="95" x2="168" y2="535"/><line x1="212" y1="95" x2="212" y2="535"/><line x1="256" y1="95" x2="256" y2="535"/><line x1="300" y1="95" x2="300" y2="535"/><line x1="344" y1="95" x2="344" y2="535"/><line x1="388" y1="95" x2="388" y2="535"/><line x1="432" y1="95" x2="432" y2="535"/><line x1="476" y1="95" x2="476" y2="535"/><line x1="520" y1="95" x2="520" y2="535"/><line x1="564" y1="95" x2="564" y2="535"/><line x1="608" y1="95" x2="608" y2="535"/><line x1="36" y1="139" x2="652" y2="139"/><line x1="36" y1="183" x2="652" y2="183"/><line x1="36" y1="227" x2="652" y2="227"/><line x1="36" y1="271" x2="652" y2="271"/><line x1="36" y1="315" x2="652" y2="315"/><line x1="36" y1="359" x2="652" y2="359"/><line x1="36" y1="403" x2="652" y2="403"/><line x1="36" y1="447" x2="652" y2="447"/><line x1="36" y1="491" x2="652" y2="491"/></g><rect x="169" y="228" width="42" height="42" rx="3" fill="#3b3a37"/><rect x="169" y="360" width="42" height="42" rx="3" fill="#3b3a37"/><rect x="213" y="228" width="42" height="42" rx="3" fill="#3b3a37"/><rect x="213" y="360" width="42" height="42" rx="3" fill="#3b3a37"/><rect x="257" y="228" width="42" height="42" rx="3" fill="#3b3a37"/><rect x="257" y="360" width="42" height="42" rx="3" fill="#3b3a37"/><rect x="301" y="228" width="42" height="42" rx="3" fill="#3b3a37"/><rect x="301" y="360" width="42" height="42" rx="3" fill="#3b3a37"/><rect x="345" y="228" width="42" height="42" rx="3" fill="#3b3a37"/><rect x="345" y="360" width="42" height="42" rx="3" fill="#3b3a37"/><rect x="477" y="140" width="42" height="42" rx="3" fill="#3b3a37"/><rect x="521" y="316" width="42" height="42" rx="3" fill="#3b3a37"/><rect x="81" y="448" width="42" height="42" rx="3" fill="#3b3a37"/><rect x="565" y="448" width="42" height="42" rx="3" fill="#3b3a37"/><rect x="394.16" y="277.16" width="31.68" height="31.68" rx="4" fill="hsl(0.0, 70%, 50%)" fill-opacity="0.15" stroke="hsl(0.0, 70%, 50%)" stroke-width="2.5"/><text x="410" y="294" font-size="15.84" font-weight="700" fill="hsl(0.0, 70%, 50%)" text-anchor="middle" dominant-baseline="middle">1</text><rect x="86.16" y="277.16" width="31.68" height="31.68" rx="4" fill="hsl(137.5, 70%, 50%)" fill-opacity="0.15" stroke="hsl(137.5, 70%, 50%)" stroke-width="2.5"/><text x="102" y="294" font-size="15.84" font-weight="700" fill="hsl(137.5, 70%, 50%)" text-anchor="middle" dominant-baseline="middle">2</text><rect x="218.16" y="453.16" width="31.68" height="31.68" rx="4" fill="hsl(275.0, 70%, 50%)" fill-opacity="0.15" stroke="hsl(275.0, 70%, 50%)" stroke-width="2.5"/><text x="234" y="470" font-size="15.84" font-weight="700" fill="hsl(275.0, 70%, 50%)" text-anchor="middle" dominant-baseline="middle">3</text><rect x="570.16" y="497.16" width="31.68" height="31.68" rx="4" fill="hsl(52.5, 70%, 50%)" fill-opacity="0.15" stroke="hsl(52.5, 70%, 50%)" stroke-width="2.5"/><text x="586" y="514" font-size="15.84" font-weight="700" fill="hsl(52.5, 70%, 50%)" text-anchor="middle" dominant-baseline="middle">4</text><rect x="42.16" y="189.16" width="31.68" height="31.68" rx="4" fill="hsl(190.0, 70%, 50%)" fill-opacity="0.15" stroke="hsl(190.0, 70%, 50%)" stroke-width="2.5"/><text x="58" y="206" font-size="15.84" font-weight="700" fill="hsl(190.0, 70%, 50%)" text-anchor="middle" dominant-baseline="middle">5</text><rect x="526.16" y="409.16" width="31.68" height="31.68" rx="4" fill="hsl(327.5, 70%, 50%)" fill-opacity="0.15" stroke="hsl(327.5, 70%, 50%)" stroke-width="2.5"/><text x="542" y="426" font-size="15.84" font-weight="700" fill="hsl(327.5, 70%, 50%)" text-anchor="middle" dominant-baseline="middle">6</text><line x1="58" y1="117" x2="102" y2="117" stroke="hsl(0.0, 70%, 50%)" stroke-width="5" stroke-linecap="round" stroke-opacity="0.85"/><polygon points="84.224,117 76.48,120.872 76.48,113.128" fill="hsl(0.0, 70%, 50%)"/><line x1="102" y1="117" x2="146" y2="117" stroke="hsl(0.0, 70%, 50%)" stroke-width="5" stroke-linecap="round" stroke-opacity="0.85"/><polygon points="128.224,117 120.48,120.872 120.48,113.128" fill="hsl(0.0, 70%, 50%)"/><line x1="146" y1="117" x2="146" y2="161" stroke="hsl(0.0, 70%, 50%)" stroke-width="5" stroke-linecap="round" stroke-opacity="0.85"/><polygon points="146,143.224 142.128,135.48 149.872,135.48" fill="hsl(0.0, 70%, 50%)"/><line x1="146" y1="161" x2="146" y2="205" stroke="hsl(0.0, 70%, 50%)" stroke-width="5" stroke-linecap="round" stroke-opacity="0.85"/><polygon points="146,187.224 142.128,179.48 149.872,179.48" fill="hsl(0.0, 70%, 50%)"/><line x1="146" y1="205" x2="190" y2="205" stroke="hsl(0.0, 70%, 50%)" stroke-width="5" stroke-linecap="round" stroke-opacity="0.85"/><polygon points="172.224,205 164.48,208.872 164.48,201.128" fill="hsl(0.0, 70%, 50%)"/><line x1="190" y1="205" x2="234" y2="205" stroke="hsl(0.0, 70%, 50%)" stroke-width="5" stroke-linecap="round" stroke-opacity="0.85"/><polygon points="216.224,205 208.48,208.872 208.48,201.128" fill="hsl(0.0, 70%, 50%)"/><line x1="234" y1="205" x2="278" y2="205" stroke="hsl(0.0, 70%, 50%)" stroke-width="5" stroke-linecap="round" stroke-opacity="0.85"/><polygon points="260.224,205 252.48,208.872 252.48,201.128" fill="hsl(0.0, 70%, 50%)"/><line x1="278" y1="205" x2="322" y2="205" stroke="hsl(0.0, 70%, 50%)" stroke-width="5" stroke-linecap="round" stroke-opacity="0.85"/><polygon points="304.224,205 296.48,208.872 296.48,201.128" fill="hsl(0.0, 70%, 50%)"/><line x1="322" y1="201.48" x2="366" y2="201.48" stroke="hsl(0.0, 70%, 50%)" stroke-width="5" stroke-linecap="round" stroke-opacity="0.85"/><polygon points="348.224,201.48 340.48,205.352 340.48,197.60799999999998" fill="hsl(0.0, 70%, 50%)"/><line x1="366" y1="201.48" x2="410" y2="201.48" stroke="hsl(0.0, 70%, 50%)" stroke-width="5" stroke-linecap="round" stroke-opacity="0.85"/><polygon points="392.224,201.48 384.48,205.352 384.48,197.60799999999998" fill="hsl(0.0, 70%, 50%)"/><line x1="410" y1="205" x2="410" y2="249" stroke="hsl(0.0, 70%, 50%)" stroke-width="5" stroke-linecap="round" stroke-opacity="0.85"/><polygon points="410,231.224 406.128,223.48 413.872,223.48" fill="hsl(0.0, 70%, 50%)"/><line x1="410" y1="249" x2="410" y2="293" stroke="hsl(0.0, 70%, 50%)" stroke-width="5" stroke-linecap="round" stroke-opacity="0.85"/><polygon points="410,275.224 406.128,267.48 413.872,267.48" fill="hsl(0.0, 70%, 50%)"/><line x1="630" y1="513" x2="586" y2="513" stroke="hsl(137.5, 70%, 50%)" stroke-width="5" stroke-linecap="round" stroke-opacity="0.85"/><polygon points="603.776,513 611.52,509.128 611.52,516.872" fill="hsl(137.5, 70%, 50%)"/><line x1="586" y1="513" x2="542" y2="513" stroke="hsl(137.5, 70%, 50%)" stroke-width="5" stroke-linecap="round" stroke-opacity="0.85"/><polygon points="559.776,513 567.52,509.128 567.52,516.872" fill="hsl(137.5, 70%, 50%)"/><line x1="542" y1="516.52" x2="498" y2="516.52" stroke="hsl(137.5, 70%, 50%)" stroke-width="5" stroke-linecap="round" stroke-opacity="0.85"/><polygon points="515.776,516.52 523.52,512.648 523.52,520.3919999999999" fill="hsl(137.5, 70%, 50%)"/><line x1="498" y1="513" x2="454" y2="513" stroke="hsl(137.5, 70%, 50%)" stroke-width="5" stroke-linecap="round" stroke-opacity="0.85"/><polygon points="471.776,513 479.52,509.128 479.52,516.872" fill="hsl(137.5, 70%, 50%)"/><line x1="454" y1="513" x2="454" y2="469" stroke="hsl(137.5, 70%, 50%)" stroke-width="5" stroke-linecap="round" stroke-opacity="0.85"/><polygon points="454,486.776 457.872,494.52 450.128,494.52" fill="hsl(137.5, 70%, 50%)"/><line x1="450.48" y1="469" x2="450.48" y2="425" stroke="hsl(137.5, 70%, 50%)" stroke-width="5" stroke-linecap="round" stroke-opacity="0.85"/><polygon points="450.48,442.776 454.35200000000003,450.52 446.608,450.52" fill="hsl(137.5, 70%, 50%)"/><line x1="450.48" y1="425" x2="450.48" y2="381" stroke="hsl(137.5, 70%, 50%)" stroke-width="5" stroke-linecap="round" stroke-opacity="0.85"/><polygon points="450.48,398.776 454.35200000000003,406.52 446.608,406.52" fill="hsl(137.5, 70%, 50%)"/><line x1="450.48" y1="381" x2="450.48" y2="337" stroke="hsl(137.5, 70%, 50%)" stroke-width="5" stroke-linecap="round" stroke-opacity="0.85"/><polygon points="450.48,354.776 454.35200000000003,362.52 446.608,362.52" fill="hsl(137.5, 70%, 50%)"/><line x1="454" y1="337" x2="410" y2="337" stroke="hsl(137.5, 70%, 50%)" stroke-width="5" stroke-linecap="round" stroke-opacity="0.85"/><polygon points="427.776,337 435.52,333.128 435.52,340.872" fill="hsl(137.5, 70%, 50%)"/><line x1="410" y1="337" x2="366" y2="337" stroke="hsl(137.5, 70%, 50%)" stroke-width="5" stroke-linecap="round" stroke-opacity="0.85"/><polygon points="383.776,337 391.52,333.128 391.52,340.872" fill="hsl(137.5, 70%, 50%)"/><line x1="366" y1="337" x2="322" y2="337" stroke="hsl(137.5, 70%, 50%)" stroke-width="5" stroke-linecap="round" stroke-opacity="0.85"/><polygon points="339.776,337 347.52,333.128 347.52,340.872" fill="hsl(137.5, 70%, 50%)"/><line x1="322" y1="337" x2="278" y2="337" stroke="hsl(137.5, 70%, 50%)" stroke-width="5" stroke-linecap="round" stroke-opacity="0.85"/><polygon points="295.776,337 303.52,333.128 303.52,340.872" fill="hsl(137.5, 70%, 50%)"/><line x1="278" y1="337" x2="234" y2="337" stroke="hsl(137.5, 70%, 50%)" stroke-width="5" stroke-linecap="round" stroke-opacity="0.85"/><polygon points="251.776,337 259.52,333.128 259.52,340.872" fill="hsl(137.5, 70%, 50%)"/><line x1="234" y1="337" x2="190" y2="337" stroke="hsl(137.5, 70%, 50%)" stroke-width="5" stroke-linecap="round" stroke-opacity="0.85"/><polygon points="207.776,337 215.52,333.128 215.52,340.872" fill="hsl(137.5, 70%, 50%)"/><line x1="190" y1="337" x2="146" y2="337" stroke="hsl(137.5, 70%, 50%)" stroke-width="5" stroke-linecap="round" stroke-opacity="0.85"/><polygon points="163.776,337 171.52,333.128 171.52,340.872" fill="hsl(137.5, 70%, 50%)"/><line x1="146" y1="337" x2="102" y2="337" stroke="hsl(137.5, 70%, 50%)" stroke-width="5" stroke-linecap="round" stroke-opacity="0.85"/><polygon points="119.776,337 127.52,333.128 127.52,340.872" fill="hsl(137.5, 70%, 50%)"/><line x1="102" y1="337" x2="102" y2="293" stroke="hsl(137.5, 70%, 50%)" stroke-width="5" stroke-linecap="round" stroke-opacity="0.85"/><polygon points="102,310.776 105.872,318.52 98.128,318.52" fill="hsl(137.5, 70%, 50%)"/><line x1="586" y1="205" x2="586" y2="249" stroke="hsl(275.0, 70%, 50%)" stroke-width="5" stroke-linecap="round" stroke-opacity="0.85"/><polygon points="586,231.224 582.128,223.48 589.872,223.48" fill="hsl(275.0, 70%, 50%)"/><line x1="586" y1="249" x2="586" y2="293" stroke="hsl(275.0, 70%, 50%)" stroke-width="5" stroke-linecap="round" stroke-opacity="0.85"/><polygon points="586,275.224 582.128,267.48 589.872,267.48" fill="hsl(275.0, 70%, 50%)"/><line x1="586" y1="293" x2="542" y2="293" stroke="hsl(275.0, 70%, 50%)" stroke-width="5" stroke-linecap="round" stroke-opacity="0.85"/><polygon points="559.776,293 567.52,289.128 567.52,296.872" fill="hsl(275.0, 70%, 50%)"/><line x1="542" y1="293" x2="498" y2="293" stroke="hsl(275.0, 70%, 50%)" stroke-width="5" stroke-linecap="round" stroke-opacity="0.85"/><polygon points="515.776,293 523.52,289.128 523.52,296.872" fill="hsl(275.0, 70%, 50%)"/><line x1="498" y1="293" x2="454" y2="293" stroke="hsl(275.0, 70%, 50%)" stroke-width="5" stroke-linecap="round" stroke-opacity="0.85"/><polygon points="471.776,293 479.52,289.128 479.52,296.872" fill="hsl(275.0, 70%, 50%)"/><line x1="454" y1="293" x2="454" y2="337" stroke="hsl(275.0, 70%, 50%)" stroke-width="5" stroke-linecap="round" stroke-opacity="0.85"/><polygon points="454,319.224 450.128,311.48 457.872,311.48" fill="hsl(275.0, 70%, 50%)"/><line x1="450.48" y1="337" x2="450.48" y2="381" stroke="hsl(275.0, 70%, 50%)" stroke-width="5" stroke-linecap="round" stroke-opacity="0.85"/><polygon points="450.48,363.224 446.608,355.48 454.35200000000003,355.48" fill="hsl(275.0, 70%, 50%)"/><line x1="450.48" y1="381" x2="450.48" y2="425" stroke="hsl(275.0, 70%, 50%)" stroke-width="5" stroke-linecap="round" stroke-opacity="0.85"/><polygon points="450.48,407.224 446.608,399.48 454.35200000000003,399.48" fill="hsl(275.0, 70%, 50%)"/><line x1="450.48" y1="425" x2="450.48" y2="469" stroke="hsl(275.0, 70%, 50%)" stroke-width="5" stroke-linecap="round" stroke-opacity="0.85"/><polygon points="450.48,451.224 446.608,443.48 454.35200000000003,443.48" fill="hsl(275.0, 70%, 50%)"/><line x1="454" y1="469" x2="410" y2="469" stroke="hsl(275.0, 70%, 50%)" stroke-width="5" stroke-linecap="round" stroke-opacity="0.85"/><polygon points="427.776,469 435.52,465.128 435.52,472.872" fill="hsl(275.0, 70%, 50%)"/><line x1="410" y1="469" x2="366" y2="469" stroke="hsl(275.0, 70%, 50%)" stroke-width="5" stroke-linecap="round" stroke-opacity="0.85"/><polygon points="383.776,469 391.52,465.128 391.52,472.872" fill="hsl(275.0, 70%, 50%)"/><line x1="366" y1="469" x2="322" y2="469" stroke="hsl(275.0, 70%, 50%)" stroke-width="5" stroke-linecap="round" stroke-opacity="0.85"/><polygon points="339.776,469 347.52,465.128 347.52,472.872" fill="hsl(275.0, 70%, 50%)"/><line x1="322" y1="469" x2="234" y2="469" stroke="hsl(275.0, 70%, 50%)" stroke-width="2" stroke-dasharray="4 5" stroke-opacity="0.5"/><line x1="322" y1="161" x2="322" y2="205" stroke="hsl(52.5, 70%, 50%)" stroke-width="5" stroke-linecap="round" stroke-opacity="0.85"/><polygon points="322,187.224 318.128,179.48 325.872,179.48" fill="hsl(52.5, 70%, 50%)"/><line x1="322" y1="208.52" x2="366" y2="208.52" stroke="hsl(52.5, 70%, 50%)" stroke-width="5" stroke-linecap="round" stroke-opacity="0.85"/><polygon points="348.224,208.52 340.48,212.39200000000002 340.48,204.648" fill="hsl(52.5, 70%, 50%)"/><line x1="366" y1="208.52" x2="410" y2="208.52" stroke="hsl(52.5, 70%, 50%)" stroke-width="5" stroke-linecap="round" stroke-opacity="0.85"/><polygon points="392.224,208.52 384.48,212.39200000000002 384.48,204.648" fill="hsl(52.5, 70%, 50%)"/><line x1="410" y1="205" x2="454" y2="205" stroke="hsl(52.5, 70%, 50%)" stroke-width="5" stroke-linecap="round" stroke-opacity="0.85"/><polygon points="436.224,205 428.48,208.872 428.48,201.128" fill="hsl(52.5, 70%, 50%)"/><line x1="454" y1="205" x2="454" y2="249" stroke="hsl(52.5, 70%, 50%)" stroke-width="5" stroke-linecap="round" stroke-opacity="0.85"/><polygon points="454,231.224 450.128,223.48 457.872,223.48" fill="hsl(52.5, 70%, 50%)"/><line x1="454" y1="249" x2="498" y2="249" stroke="hsl(52.5, 70%, 50%)" stroke-width="5" stroke-linecap="round" stroke-opacity="0.85"/><polygon points="480.224,249 472.48,252.872 472.48,245.128" fill="hsl(52.5, 70%, 50%)"/><line x1="498" y1="249" x2="498" y2="293" stroke="hsl(52.5, 70%, 50%)" stroke-width="5" stroke-linecap="round" stroke-opacity="0.85"/><polygon points="498,275.224 494.128,267.48 501.872,267.48" fill="hsl(52.5, 70%, 50%)"/><line x1="498" y1="293" x2="498" y2="337" stroke="hsl(52.5, 70%, 50%)" stroke-width="5" stroke-linecap="round" stroke-opacity="0.85"/><polygon points="498,319.224 494.128,311.48 501.872,311.48" fill="hsl(52.5, 70%, 50%)"/><line x1="498" y1="337" x2="498" y2="381" stroke="hsl(52.5, 70%, 50%)" stroke-width="5" stroke-linecap="round" stroke-opacity="0.85"/><polygon points="498,363.224 494.128,355.48 501.872,355.48" fill="hsl(52.5, 70%, 50%)"/><line x1="498" y1="381" x2="498" y2="425" stroke="hsl(52.5, 70%, 50%)" stroke-width="5" stroke-linecap="round" stroke-opacity="0.85"/><polygon points="498,407.224 494.128,399.48 501.872,399.48" fill="hsl(52.5, 70%, 50%)"/><line x1="498" y1="425" x2="498" y2="469" stroke="hsl(52.5, 70%, 50%)" stroke-width="5" stroke-linecap="round" stroke-opacity="0.85"/><polygon points="498,451.224 494.128,443.48 501.872,443.48" fill="hsl(52.5, 70%, 50%)"/><line x1="498" y1="469" x2="498" y2="513" stroke="hsl(52.5, 70%, 50%)" stroke-width="5" stroke-linecap="round" stroke-opacity="0.85"/><polygon points="498,495.224 494.128,487.48 501.872,487.48" fill="hsl(52.5, 70%, 50%)"/><line x1="498" y1="516.52" x2="542" y2="516.52" stroke="hsl(52.5, 70%, 50%)" stroke-width="5" stroke-linecap="round" stroke-opacity="0.85"/><polygon points="524.224,516.52 516.48,520.3919999999999 516.48,512.648" fill="hsl(52.5, 70%, 50%)"/><line x1="542" y1="513" x2="586" y2="513" stroke="hsl(52.5, 70%, 50%)" stroke-width="2" stroke-dasharray="4 5" stroke-opacity="0.5"/><line x1="278" y1="293" x2="234" y2="293" stroke="hsl(190.0, 70%, 50%)" stroke-width="5" stroke-linecap="round" stroke-opacity="0.85"/><polygon points="251.776,293 259.52,289.128 259.52,296.872" fill="hsl(190.0, 70%, 50%)"/><line x1="234" y1="293" x2="190" y2="293" stroke="hsl(190.0, 70%, 50%)" stroke-width="5" stroke-linecap="round" stroke-opacity="0.85"/><polygon points="207.776,293 215.52,289.128 215.52,296.872" fill="hsl(190.0, 70%, 50%)"/><line x1="190" y1="293" x2="146" y2="293" stroke="hsl(190.0, 70%, 50%)" stroke-width="5" stroke-linecap="round" stroke-opacity="0.85"/><polygon points="163.776,293 171.52,289.128 171.52,296.872" fill="hsl(190.0, 70%, 50%)"/><line x1="146" y1="293" x2="146" y2="249" stroke="hsl(190.0, 70%, 50%)" stroke-width="5" stroke-linecap="round" stroke-opacity="0.85"/><polygon points="146,266.776 149.872,274.52 142.128,274.52" fill="hsl(190.0, 70%, 50%)"/><line x1="146" y1="249" x2="146" y2="205" stroke="hsl(190.0, 70%, 50%)" stroke-width="5" stroke-linecap="round" stroke-opacity="0.85"/><polygon points="146,222.776 149.872,230.52 142.128,230.52" fill="hsl(190.0, 70%, 50%)"/><line x1="146" y1="205" x2="102" y2="205" stroke="hsl(190.0, 70%, 50%)" stroke-width="5" stroke-linecap="round" stroke-opacity="0.85"/><polygon points="119.776,205 127.52,201.128 127.52,208.872" fill="hsl(190.0, 70%, 50%)"/><line x1="102" y1="205" x2="58" y2="205" stroke="hsl(190.0, 70%, 50%)" stroke-width="5" stroke-linecap="round" stroke-opacity="0.85"/><polygon points="75.776,205 83.52,201.128 83.52,208.872" fill="hsl(190.0, 70%, 50%)"/><line x1="630" y1="249" x2="630" y2="293" stroke="hsl(327.5, 70%, 50%)" stroke-width="5" stroke-linecap="round" stroke-opacity="0.85"/><polygon points="630,275.224 626.128,267.48 633.872,267.48" fill="hsl(327.5, 70%, 50%)"/><line x1="630" y1="293" x2="630" y2="337" stroke="hsl(327.5, 70%, 50%)" stroke-width="5" stroke-linecap="round" stroke-opacity="0.85"/><polygon points="630,319.224 626.128,311.48 633.872,311.48" fill="hsl(327.5, 70%, 50%)"/><circle cx="630" cy="337" r="4.4" fill="hsl(327.5, 70%, 50%)"/><line x1="630" y1="337" x2="630" y2="381" stroke="hsl(327.5, 70%, 50%)" stroke-width="5" stroke-linecap="round" stroke-opacity="0.85"/><polygon points="630,363.224 626.128,355.48 633.872,355.48" fill="hsl(327.5, 70%, 50%)"/><line x1="630" y1="381" x2="586" y2="381" stroke="hsl(327.5, 70%, 50%)" stroke-width="5" stroke-linecap="round" stroke-opacity="0.85"/><polygon points="603.776,381 611.52,377.128 611.52,384.872" fill="hsl(327.5, 70%, 50%)"/><line x1="586" y1="381" x2="542" y2="381" stroke="hsl(327.5, 70%, 50%)" stroke-width="5" stroke-linecap="round" stroke-opacity="0.85"/><polygon points="559.776,381 567.52,377.128 567.52,384.872" fill="hsl(327.5, 70%, 50%)"/><line x1="542" y1="381" x2="542" y2="425" stroke="hsl(327.5, 70%, 50%)" stroke-width="5" stroke-linecap="round" stroke-opacity="0.85"/><polygon points="542,407.224 538.128,399.48 545.872,399.48" fill="hsl(327.5, 70%, 50%)"/><circle cx="58" cy="117" r="6.16" fill="hsl(0.0, 70%, 50%)" fill-opacity="0.6"/><circle cx="630" cy="513" r="6.16" fill="hsl(137.5, 70%, 50%)" fill-opacity="0.6"/><circle cx="586" cy="205" r="6.16" fill="hsl(275.0, 70%, 50%)" fill-opacity="0.6"/><circle cx="322" cy="161" r="6.16" fill="hsl(52.5, 70%, 50%)" fill-opacity="0.6"/><circle cx="278" cy="293" r="6.16" fill="hsl(190.0, 70%, 50%)" fill-opacity="0.6"/><circle cx="630" cy="249" r="6.16" fill="hsl(327.5, 70%, 50%)" fill-opacity="0.6"/><g filter="url(#soft)"><circle cx="410" cy="293" r="16.28" fill="hsl(0.0, 70%, 50%)" stroke="#fff" stroke-width="2.5"/></g><text x="410" y="294" font-size="17.094" font-weight="700" fill="#fff" text-anchor="middle" dominant-baseline="middle">1</text><g filter="url(#soft)"><circle cx="102" cy="293" r="16.28" fill="hsl(137.5, 70%, 50%)" stroke="#fff" stroke-width="2.5"/></g><text x="102" y="294" font-size="17.094" font-weight="700" fill="#fff" text-anchor="middle" dominant-baseline="middle">2</text><g filter="url(#soft)"><circle cx="322" cy="469" r="16.28" fill="hsl(275.0, 70%, 50%)" stroke="#fff" stroke-width="2.5"/></g><text x="322" y="470" font-size="17.094" font-weight="700" fill="#fff" text-anchor="middle" dominant-baseline="middle">3</text><g filter="url(#soft)"><circle cx="542" cy="513" r="16.28" fill="hsl(52.5, 70%, 50%)" stroke="#fff" stroke-width="2.5"/></g><text x="542" y="514" font-size="17.094" font-weight="700" fill="#fff" text-anchor="middle" dominant-baseline="middle">4</text><g filter="url(#soft)"><circle cx="58" cy="205" r="16.28" fill="hsl(190.0, 70%, 50%)" stroke="#fff" stroke-width="2.5"/></g><text x="58" y="206" font-size="17.094" font-weight="700" fill="#fff" text-anchor="middle" dominant-baseline="middle">5</text><g filter="url(#soft)"><circle cx="542" cy="425" r="16.28" fill="hsl(327.5, 70%, 50%)" stroke="#fff" stroke-width="2.5"/></g><text x="542" y="426" font-size="17.094" font-weight="700" fill="#fff" text-anchor="middle" dominant-baseline="middle">6</text><g transform="translate(328 477) scale(1.15)" filter="url(#soft)">
    <path d="M6 20 L6 4 Q6 0 9.5 0 Q13 0 13 4 L13 14 L15 13 Q18 12 19 14 L21 13 Q24 12 25 14.5 L27 14 Q30 13.5 30.5 16 L30.5 26 Q30 36 22 38 L14 38 Q9 38 6 33 L0 24 Q-1.5 21 1.5 19.5 Q4 18.5 6 20 Z" fill="#fff" stroke="#2b2a28" stroke-width="2.2" stroke-linejoin="round"/>
  </g><text x="700" y="205" font-size="64" font-weight="800" fill="#2b2a28" letter-spacing="0.5">Human MAPF</text><text x="700" y="250" font-size="25" font-weight="600" fill="#3b3a37">人力マルチエージェント経路計画</text><text x="700" y="282" font-size="18" fill="#666">Multi-Agent Path Finding, solved by hand</text><text x="700" y="340" font-size="18" fill="#2b2a28">全員をぶつけずにゴールへ。</text><text x="700" y="368" font-size="18" fill="#2b2a28">makespan と total distance で MAPF ソルバーに挑め。</text><rect x="700" y="412" width="84.39999999999999" height="28" rx="14" fill="#1e9be0"/><text x="742.2" y="427" font-size="12" font-weight="700" fill="#fff" text-anchor="middle" dominant-baseline="middle" letter-spacing="0.4">DIAMOND</text><rect x="791.4" y="412" width="93.6" height="28" rx="14" fill="#78909c"/><text x="838.1999999999999" y="427" font-size="12" font-weight="700" fill="#fff" text-anchor="middle" dominant-baseline="middle" letter-spacing="0.4">PLATINUM</text><rect x="892" y="412" width="56.8" height="28" rx="14" fill="#d4a017"/><text x="920.4" y="427" font-size="12" font-weight="700" fill="#fff" text-anchor="middle" dominant-baseline="middle" letter-spacing="0.4">GOLD</text><rect x="955.8" y="412" width="75.19999999999999" height="28" rx="14" fill="#9e9e9e"/><text x="993.4" y="427" font-size="12" font-weight="700" fill="#fff" text-anchor="middle" dominant-baseline="middle" letter-spacing="0.4">SILVER</text><rect x="1038" y="412" width="75.19999999999999" height="28" rx="14" fill="#a5602c"/><text x="1075.6" y="427" font-size="12" font-weight="700" fill="#fff" text-anchor="middle" dominant-baseline="middle" letter-spacing="0.4">BRONZE</text><g transform="translate(700 470)"><rect x="0" y="0" width="90" height="30" fill="#f4f1ea" stroke="#bbb"/><line x1="30" y1="0" x2="30" y2="30" stroke="#ccc"/><line x1="60" y1="0" x2="60" y2="30" stroke="#ccc"/><circle cx="15" cy="15" r="9.6" fill="#e0492f" fill-opacity="1" stroke="#fff" stroke-width="1.5"/><circle cx="75" cy="15" r="9.6" fill="#2f6fe0" fill-opacity="1" stroke="#fff" stroke-width="1.5"/><line x1="24" y1="15" x2="32.4" y2="15" stroke="#e0492f" stroke-width="2.5"/><polygon points="36,15 30.6,10 30.6,20" fill="#e0492f"/><line x1="66" y1="15" x2="57.6" y2="15" stroke="#2f6fe0" stroke-width="2.5"/><polygon points="54,15 59.4,10 59.4,20" fill="#2f6fe0"/><path d="M37.2,7.199999999999999 L52.8,22.8 M52.8,7.199999999999999 L37.2,22.8" stroke="#e02020" stroke-width="3.5" stroke-linecap="round"/><text x="100" y="16" font-size="14" font-weight="600" fill="#d32f2f" dominant-baseline="middle">同じマスに同時に入ると衝突</text></g><g transform="translate(700 514)"><rect x="0" y="0" width="90" height="30" fill="#f4f1ea" stroke="#bbb"/><line x1="30" y1="0" x2="30" y2="30" stroke="#ccc"/><line x1="60" y1="0" x2="60" y2="30" stroke="#ccc"/><circle cx="15" cy="15" r="9.6" fill="#2f6fe0" fill-opacity="1" stroke="#fff" stroke-width="1.5"/><circle cx="45" cy="15" r="9.6" fill="#e0492f" fill-opacity="1" stroke="#fff" stroke-width="1.5"/><line x1="54" y1="15" x2="62.4" y2="15" stroke="#e0492f" stroke-width="2.5"/><polygon points="66,15 60.6,10 60.6,20" fill="#e0492f"/><line x1="24" y1="15" x2="32.4" y2="15" stroke="#2f6fe0" stroke-width="2.5"/><polygon points="36,15 30.6,10 30.6,20" fill="#2f6fe0"/><text x="100" y="16" font-size="14" font-weight="600" fill="#2f7d32" dominant-baseline="middle">列になって進むのは OK</text></g><text x="700" y="590" font-size="13" fill="#777">hirokinagai-39.github.io/human-mapf — ブラウザで無料 / 日本語・英語対応</text></svg>
